<svg width="868" height="501" viewBox="0 0 868 501" fill="none" xmlns="http://www.w3.org/2000/svg">
<g clip-path="url(#clip0)">
<path d="M14.9553 192.036H300.153C303.866 192.036 307.427 193.511 310.052 196.136C312.678 198.762 314.153 202.323 314.153 206.036V228.274H0.955322V206.036C0.955325 202.323 2.43032 198.762 5.05582 196.136C7.68133 193.511 11.2423 192.036 14.9553 192.036Z" fill="#333333"/>
<path d="M294.74 189.447C293.331 189.454 291.932 189.692 290.6 190.152C290.144 188.314 289.03 186.707 287.469 185.634C285.908 184.562 284.009 184.097 282.129 184.329C280.25 184.561 278.52 185.473 277.267 186.893C276.013 188.312 275.323 190.142 275.327 192.036C275.327 192.075 275.336 192.11 275.337 192.149C274.367 192.241 273.409 192.439 272.482 192.741C272.219 191.696 271.742 190.716 271.081 189.865C270.42 189.014 269.59 188.308 268.643 187.794C271.131 186.419 273.099 184.265 274.244 181.663C280.577 181.56 285.68 176.982 285.68 171.329C285.68 165.61 280.466 160.975 274.033 160.975C272.623 160.981 271.225 161.219 269.893 161.68C269.654 160.662 269.212 159.703 268.592 158.861C267.972 158.018 267.188 157.311 266.287 156.78C265.386 156.249 264.387 155.906 263.35 155.772C262.313 155.638 261.259 155.716 260.253 156C259.247 156.285 258.309 156.77 257.495 157.427C256.682 158.084 256.01 158.899 255.52 159.823C255.03 160.747 254.733 161.761 254.646 162.803C254.558 163.845 254.683 164.894 255.013 165.886C254.703 166.101 254.414 166.343 254.125 166.584C252.661 165.324 250.759 164.691 248.832 164.822C247.837 161.964 245.867 159.546 243.268 157.994C240.67 156.442 237.608 155.854 234.619 156.332C231.63 156.811 228.905 158.326 226.921 160.612C224.937 162.898 223.821 165.809 223.768 168.836C222.73 168.918 221.704 169.122 220.713 169.445C220.602 169.007 220.453 168.58 220.267 168.168C221.289 167.266 222.11 166.16 222.677 164.921C223.244 163.682 223.544 162.338 223.559 160.975C223.559 155.257 218.344 150.621 211.911 150.621C210.502 150.628 209.103 150.866 207.771 151.326C207.532 150.308 207.09 149.349 206.47 148.507C205.85 147.665 205.066 146.957 204.165 146.426C203.264 145.895 202.265 145.553 201.228 145.419C200.191 145.285 199.137 145.362 198.131 145.647C197.125 145.931 196.187 146.417 195.373 147.074C194.56 147.731 193.888 148.546 193.398 149.47C192.908 150.393 192.611 151.407 192.524 152.449C192.437 153.491 192.561 154.54 192.891 155.532C191.261 156.664 189.914 158.157 188.954 159.894C187.995 161.631 187.449 163.565 187.359 165.548C187.249 165.645 187.124 165.724 187.02 165.827C187.214 165.088 187.315 164.327 187.321 163.563C187.321 157.845 182.106 153.21 175.673 153.21C174.264 153.216 172.865 153.454 171.534 153.915C171.295 152.897 170.852 151.937 170.232 151.095C169.612 150.253 168.828 149.545 167.927 149.015C167.026 148.484 166.027 148.141 164.99 148.007C163.953 147.873 162.9 147.951 161.893 148.235C160.887 148.52 159.949 149.005 159.136 149.662C158.322 150.319 157.65 151.134 157.16 152.058C156.671 152.982 156.373 153.995 156.286 155.037C156.199 156.08 156.324 157.128 156.653 158.121C154.935 159.308 153.53 160.895 152.56 162.744C151.59 164.594 151.083 166.652 151.083 168.74C151.083 170.829 151.59 172.886 152.56 174.736C153.53 176.586 154.935 178.172 156.653 179.36C156.129 180.864 156.129 182.501 156.653 184.005C155.356 184.91 154.234 186.043 153.342 187.349C152.862 185.61 151.789 184.094 150.309 183.064C148.829 182.035 147.034 181.556 145.238 181.711C143.441 181.866 141.755 182.646 140.474 183.914C139.192 185.183 138.395 186.861 138.221 188.656C137.183 188.047 136.062 187.595 134.893 187.311C136.99 185.927 138.641 183.965 139.647 181.663C145.98 181.56 151.083 176.982 151.083 171.329C151.083 165.61 145.868 160.975 139.435 160.975C138.026 160.981 136.628 161.219 135.296 161.68C135.057 160.662 134.614 159.703 133.994 158.861C133.375 158.018 132.591 157.311 131.69 156.78C130.789 156.249 129.789 155.906 128.752 155.772C127.715 155.638 126.662 155.716 125.656 156C124.649 156.285 123.711 156.77 122.898 157.427C122.084 158.084 121.412 158.899 120.923 159.823C120.433 160.747 120.135 161.761 120.048 162.803C119.961 163.845 120.086 164.894 120.415 165.886C120.249 166.002 120.1 166.137 119.939 166.26C119.535 166.223 119.143 166.152 118.728 166.152C117.319 166.158 115.92 166.396 114.589 166.857C114.54 166.661 114.459 166.48 114.396 166.291C114.647 165.139 114.627 163.944 114.338 162.801C114.049 161.657 113.498 160.597 112.73 159.702C111.962 158.807 110.997 158.102 109.911 157.643C108.824 157.185 107.647 156.984 106.47 157.057C105.796 155.18 104.697 153.484 103.258 152.103C101.82 150.721 100.082 149.691 98.1795 149.092C96.277 148.494 94.262 148.344 92.2919 148.654C90.3218 148.964 88.4501 149.725 86.8231 150.878C85.1961 152.032 83.858 153.546 82.9134 155.302C81.9688 157.059 81.4433 159.01 81.378 161.003C81.3127 162.996 81.7094 164.978 82.537 166.792C83.3646 168.607 84.6007 170.205 86.1487 171.462C85.2581 171.565 84.3801 171.756 83.5277 172.033C83.2217 170.771 82.6013 169.607 81.7242 168.65C80.8472 167.692 79.7421 166.972 78.5118 166.556C77.2815 166.141 75.966 166.043 74.6879 166.273C73.4099 166.503 72.2107 167.052 71.2021 167.87C70.0486 166.5 68.6053 165.403 66.9765 164.658C65.3476 163.914 63.5738 163.54 61.7829 163.563C60.3738 163.57 58.9754 163.808 57.6436 164.268C57.4047 163.25 56.9619 162.291 56.3421 161.449C55.7223 160.607 54.9382 159.899 54.0373 159.368C53.1363 158.837 52.1372 158.495 51.1001 158.361C50.0631 158.227 49.0096 158.304 48.0034 158.589C46.9971 158.873 46.059 159.359 45.2455 160.016C44.432 160.673 43.7601 161.488 43.2704 162.412C42.7806 163.336 42.4832 164.349 42.396 165.391C42.3087 166.433 42.4336 167.482 42.7629 168.474C41.045 169.662 39.6407 171.249 38.6706 173.098C37.7005 174.948 37.1935 177.005 37.193 179.094C37.193 179.134 37.2046 179.171 37.2049 179.211C35.3695 178.933 33.4933 179.135 31.7595 179.799C31.5205 178.781 31.0778 177.822 30.458 176.979C29.8381 176.137 29.0541 175.429 28.1532 174.899C27.2522 174.368 26.2531 174.025 25.216 173.891C24.179 173.757 23.1255 173.835 22.1193 174.119C21.1131 174.404 20.1749 174.889 19.3615 175.546C18.548 176.203 17.8761 177.018 17.3864 177.942C16.8966 178.866 16.5991 179.88 16.5119 180.922C16.4247 181.964 16.5495 183.013 16.8788 184.005C14.3825 185.695 12.5575 188.206 11.7212 191.102C10.8849 193.999 11.0902 197.096 12.3014 199.857C13.5125 202.617 15.653 204.866 18.3505 206.212C21.0479 207.557 24.1318 207.915 27.0656 207.222C27.5328 209.923 28.8482 212.404 30.8209 214.307C32.7936 216.209 35.3211 217.434 38.0368 217.803C40.7524 218.172 43.515 217.666 45.9238 216.359C48.3325 215.051 50.2622 213.011 51.4329 210.533C52.4931 212.776 54.1778 214.666 56.2849 215.976C58.392 217.286 60.8322 217.96 63.313 217.918C65.7937 217.876 68.2098 217.12 70.2714 215.739C72.3331 214.359 73.953 212.414 74.9368 210.136C76.462 210.114 77.9712 209.822 79.3942 209.273C80.2497 211.725 81.8256 213.861 83.9154 215.402C86.0052 216.944 88.5117 217.818 91.1069 217.912C93.702 218.005 96.2648 217.313 98.4599 215.925C100.655 214.538 102.38 212.52 103.409 210.136C105.297 210.098 107.151 209.639 108.838 208.792C110.019 210.88 111.76 212.596 113.864 213.748C115.967 214.9 118.351 215.442 120.746 215.313C123.141 215.183 125.452 214.388 127.42 213.016C129.387 211.644 130.933 209.75 131.882 207.547C132.576 207.53 133.268 207.458 133.951 207.331C134.92 209.68 136.559 211.691 138.664 213.114C140.769 214.537 143.246 215.308 145.787 215.331C148.328 215.354 150.819 214.628 152.949 213.244C155.08 211.86 156.755 209.878 157.766 207.547C158.783 207.519 159.792 207.37 160.774 207.104C163.375 207.829 166.14 207.7 168.663 206.737C171.186 205.773 173.333 204.026 174.789 201.752C173.975 204.904 174.38 208.246 175.923 211.113C177.465 213.979 180.031 216.159 183.11 217.217C186.188 218.276 189.552 218.134 192.531 216.822C195.51 215.509 197.884 213.122 199.181 210.136C201.068 210.098 202.923 209.639 204.61 208.792C205.791 210.88 207.531 212.596 209.635 213.748C211.739 214.9 214.122 215.442 216.517 215.313C218.912 215.183 221.224 214.388 223.191 213.016C225.158 211.644 226.704 209.75 227.653 207.547C229.54 207.51 231.395 207.051 233.082 206.204C233.992 207.826 235.245 209.23 236.753 210.319C238.261 211.408 239.988 212.155 241.814 212.509C243.64 212.863 245.521 212.815 247.326 212.368C249.132 211.922 250.818 211.087 252.269 209.923C252.718 212.399 253.883 214.689 255.618 216.511C257.354 218.333 259.586 219.607 262.037 220.175C264.489 220.744 267.053 220.582 269.414 219.71C271.774 218.838 273.828 217.294 275.321 215.269C276.875 216.459 278.679 217.279 280.598 217.666C282.516 218.053 284.498 217.997 286.392 217.502C288.285 217.007 290.04 216.086 291.524 214.809C293.007 213.533 294.18 211.934 294.952 210.136C301.285 210.033 306.388 205.455 306.388 199.801C306.388 194.083 301.173 189.447 294.74 189.447ZM63.3925 184.105C63.3789 184.168 63.3694 184.232 63.3566 184.295C63.2622 184.291 63.1726 184.271 63.0772 184.271C62.6904 184.28 62.3048 184.319 61.9239 184.387C61.9449 184.34 61.9744 184.299 61.9948 184.252C62.463 184.228 62.9296 184.18 63.3925 184.105V184.105ZM171.534 179.799C171.496 179.648 171.431 179.509 171.385 179.362C173.361 177.992 174.919 176.101 175.885 173.898C177.587 173.889 179.268 173.521 180.819 172.819C182.369 172.117 183.755 171.096 184.884 169.823C184.785 170.319 184.734 170.823 184.732 171.329C184.743 172.119 184.876 172.902 185.125 173.651C182.903 175.201 181.221 177.406 180.314 179.959C177.499 178.863 174.386 178.807 171.534 179.799V179.799ZM249.057 180.764C249.052 180.605 249.072 180.442 249.062 180.284C249.391 180.283 249.721 180.26 250.048 180.217C250.55 181.892 251.389 183.446 252.514 184.785C252.269 184.853 252.012 184.895 251.774 184.975C251.356 183.311 250.401 181.831 249.057 180.764V180.764Z" fill="#F9A825"/>
<path d="M27.029 204.978C23.3575 204.978 19.7244 205.725 16.3515 207.176C12.9786 208.626 9.93654 210.748 7.41099 213.413C4.88545 216.078 2.92937 219.23 1.66212 222.675C0.394877 226.121 -0.156964 229.789 0.0402817 233.456L17.5677 474.476C17.9372 481.384 20.9419 487.887 25.9628 492.646C30.9837 497.405 37.6385 500.057 44.5564 500.057H270.552C277.47 500.057 284.124 497.405 289.145 492.646C294.166 487.887 297.171 481.384 297.54 474.476L315.068 233.456C315.265 229.789 314.713 226.121 313.446 222.675C312.179 219.23 310.223 216.078 307.697 213.413C305.172 210.748 302.13 208.626 298.757 207.176C295.384 205.725 291.751 204.978 288.079 204.978H27.029Z" fill="#555555"/>
<path d="M55.3119 204.978H39.7815V500.057H55.3119V204.978Z" fill="#333333"/>
<path d="M99.3149 204.978H83.7844V500.057H99.3149V204.978Z" fill="#333333"/>
<path d="M143.318 204.978H127.787V500.057H143.318V204.978Z" fill="#333333"/>
<path d="M187.321 204.978H171.79V500.057H187.321V204.978Z" fill="#333333"/>
<path d="M231.324 204.978H215.793V500.057H231.324V204.978Z" fill="#333333"/>
<path d="M275.327 204.978H259.796V500.057H275.327V204.978Z" fill="#333333"/>
<path d="M528.702 84.0066L521.932 67.5166L431.662 104.577C429.619 105.417 427.871 106.846 426.64 108.681C425.41 110.517 424.753 112.677 424.752 114.887V212.417H442.582V119.387L528.702 84.0066Z" fill="#333333"/>
<path d="M517.102 49.5966H497.662V111.167H517.102V49.5966Z" fill="black"/>
<path d="M486.322 62.5566H466.882V124.127H486.322V62.5566Z" fill="black"/>
<path d="M456.342 115.217L442.572 119.267L436.902 53.647H456.342V115.217Z" fill="black"/>
<path d="M467.682 122.507H406.112V141.947H467.682V122.507Z" fill="black"/>
<path d="M467.692 149.247H406.122V168.687H467.692V149.247Z" fill="black"/>
<path d="M467.682 175.987H406.112V195.427H467.682V175.987Z" fill="black"/>
<path d="M497.662 500.057H378.572L349.402 208.387H523.592L497.662 500.057Z" fill="#333333"/>
<path d="M536.552 203.527H337.252V222.967H536.552V203.527Z" fill="#555555"/>
<path d="M739.312 134.15C776.304 134.15 806.292 104.162 806.292 67.1702C806.292 30.1781 776.304 0.190186 739.312 0.190186C702.32 0.190186 672.332 30.1781 672.332 67.1702C672.332 104.162 702.32 134.15 739.312 134.15Z" fill="#333333"/>
<path d="M783.662 67.17L716.622 100.11V67.17V34.23L783.662 67.17Z" fill="url(#paint0_linear)"/>
<path d="M779.632 67.17L720.642 96.16V67.17V38.18L779.632 67.17Z" fill="#FFFDFD"/>
<path opacity="0.2" d="M677.812 74.8602C677.823 61.0757 682.086 47.63 690.018 36.3566C697.951 25.0833 709.167 16.531 722.138 11.8661C735.11 7.20121 749.204 6.65069 762.5 10.2897C775.795 13.9286 787.645 21.5799 796.432 32.2002C791.645 24.3276 785.286 17.5269 777.752 12.2232C770.218 6.91947 761.671 3.2267 752.645 1.37567C743.619 -0.475359 734.308 -0.44486 725.295 1.46525C716.281 3.37537 707.759 7.12404 700.259 12.477C692.76 17.83 686.445 24.6722 681.71 32.576C676.975 40.4798 673.921 49.2753 672.738 58.4128C671.556 67.5504 672.271 76.8336 674.839 85.6823C677.407 94.531 681.772 102.755 687.662 109.84C681.203 99.3175 677.793 87.2074 677.812 74.8602Z" fill="#FFFDFD"/>
<path d="M727.548 414.809C726.767 414.809 726.019 415.12 725.466 415.672C724.914 416.223 724.603 416.972 724.602 417.753V497.113C724.603 497.893 724.914 498.642 725.466 499.194C726.019 499.746 726.767 500.056 727.548 500.057H864.162C864.942 500.056 865.691 499.746 866.243 499.194C866.796 498.642 867.107 497.893 867.108 497.113V417.753C867.107 416.972 866.796 416.223 866.243 415.672C865.691 415.12 864.942 414.809 864.162 414.809H727.548Z" fill="#555555"/>
<path d="M742.815 421.807C741.36 421.809 739.965 422.388 738.936 423.417C737.907 424.445 737.328 425.84 737.327 427.295V487.57C737.328 489.025 737.907 490.42 738.936 491.449C739.965 492.478 741.36 493.056 742.815 493.058H848.895C850.35 493.056 851.745 492.478 852.774 491.449C853.803 490.42 854.381 489.025 854.383 487.57V427.295C854.381 425.84 853.803 424.445 852.774 423.417C851.745 422.388 850.35 421.809 848.895 421.807L742.815 421.807Z" fill="#FFFDFD"/>
<path d="M729.083 440.95H657.922V457.432H729.083V440.95Z" fill="#555555"/>
<path d="M534.093 414.809C533.313 414.81 532.565 415.12 532.013 415.672C531.461 416.224 531.151 416.972 531.149 417.753V497.113C531.151 497.893 531.461 498.641 532.013 499.193C532.565 499.745 533.313 500.055 534.093 500.057H670.709C671.49 500.055 672.238 499.745 672.79 499.193C673.342 498.641 673.652 497.893 673.653 497.113V417.753C673.652 416.972 673.342 416.224 672.79 415.672C672.238 415.12 671.49 414.81 670.709 414.809H534.093Z" fill="#555555"/>
<path d="M549.363 421.807C547.907 421.808 546.512 422.387 545.482 423.416C544.453 424.445 543.874 425.84 543.872 427.295V487.57C543.874 489.025 544.453 490.421 545.482 491.449C546.512 492.478 547.907 493.057 549.363 493.058H655.44C656.896 493.057 658.291 492.478 659.32 491.449C660.35 490.421 660.929 489.025 660.931 487.57V427.295C660.929 425.84 660.35 424.445 659.32 423.416C658.291 422.387 656.896 421.808 655.44 421.807L549.363 421.807Z" fill="black"/>
</g>
<defs>
<linearGradient id="paint0_linear" x1="750.142" y1="100.11" x2="750.142" y2="34.2302" gradientUnits="userSpaceOnUse">
<stop stop-opacity="0.12"/>
<stop offset="0.55" stop-opacity="0.09"/>
<stop offset="1" stop-opacity="0.02"/>
</linearGradient>
<clipPath id="clip0">
<rect width="867.108" height="500.057" fill="white"/>
</clipPath>
</defs>
</svg>
