<svg width="232" height="256" viewBox="0 0 232 256" fill="none" xmlns="http://www.w3.org/2000/svg">
<path d="M19.3836 121.412C23.7879 121.412 27.3584 117.841 27.3584 113.437C27.3584 109.033 23.7879 105.462 19.3836 105.462C14.9793 105.462 11.4089 109.033 11.4089 113.437C11.4089 117.841 14.9793 121.412 19.3836 121.412Z" fill="white"/>
<path d="M152.5 19.5L191.241 38.9645L207 33L205 27.5L173.5 11.5L152.5 19.5Z" fill="#3F3F3F"/>
<path d="M151 54.5L112 34.5L91 42.5L129.5 62.5L151 54.5Z" fill="#3F3F3F"/>
<path d="M52.5597 55.9091L30 65.5L69.665 85.7391L92.8028 77.0519L52.5597 55.9091Z" fill="#3F3F3F"/>
<path d="M94 114.5H71.5L42.5 146.5H65.5L94 114.5Z" fill="#333333"/>
<path d="M158.5 114.5H135.5L106.5 146.5H129.5L158.5 114.5Z" fill="#333333"/>
<path d="M170.5 148H182H193.5L222.5 114.5H199.5L170.5 148Z" fill="#333333"/>
<path d="M167.5 147.5L197.5 114.5H160.5L131 147.5H167.5Z" fill="white"/>
<path d="M196 147.5H231V114.5H225L196 147.5Z" fill="white"/>
<path d="M19.3836 126.695C26.7057 126.695 32.6414 120.759 32.6414 113.437C32.6414 106.115 26.7057 100.179 19.3836 100.179C12.0616 100.179 6.12585 106.115 6.12585 113.437C6.12585 120.759 12.0616 126.695 19.3836 126.695Z" fill="#333333"/>
<path d="M23.2258 128.864L25 147.5H40L69.3114 114.292H35.5C36.4322 121 31 126 25 128.864H23.2258Z" fill="white"/>
<path d="M103.5 147.5L133 114.5H96.5L66.5 147.5H103.5Z" fill="white"/>
<path d="M176 10.5L204 25L195.5 3L176 10.5Z" fill="white"/>
<path d="M150 20.5L114.5 34L153 53.5L189 40L150 20.5Z" fill="white"/>
<path d="M88.5 43.5L55.5 56L93.5 76L127.5 63L88.5 43.5Z" fill="white"/>
<path d="M29.5 66L2 76L12 99C14 97.783 19.1211 97 21 97C25 97.5 28.5 99.5097 29 100.5L68 85.5L54 78.5L29.5 66Z" fill="white"/>
<path d="M29.9749 101.171L208.17 33.5367L195.842 1.85422L1.74527 75.532L11.0323 99.3876" stroke="black" stroke-width="2" stroke-miterlimit="10" stroke-linecap="round" stroke-linejoin="round"/>
<path d="M24 240.105V148H230.5V193V216V240.105C230.5 244.092 229.132 247.863 226.301 250.629C224.764 252.132 223.613 253.203 222.347 253.92C221.122 254.614 219.743 255 217.733 255H39.2675C35.2109 255 31.325 253.425 28.4635 250.629C25.6028 247.834 24 244.048 24 240.105Z" stroke="black" stroke-width="2" stroke-miterlimit="10" stroke-linecap="round" stroke-linejoin="round"/>
<path d="M36 113H230.5V130.5V147" stroke="black" stroke-width="2" stroke-miterlimit="10" stroke-linecap="round" stroke-linejoin="round"/>
<path d="M24 148L23.8192 129.223" stroke="black" stroke-width="2" stroke-miterlimit="10" stroke-linecap="round" stroke-linejoin="round"/>
<path d="M40.4482 147.373H65.4718L96.0847 113.437H71.0611L40.4482 147.373Z" stroke="black" stroke-width="2" stroke-miterlimit="10" stroke-linecap="round" stroke-linejoin="round"/>
<path d="M104.57 147.373H129.594L160.207 113.437H135.183L104.57 147.373Z" stroke="black" stroke-width="2" stroke-miterlimit="10" stroke-linecap="round" stroke-linejoin="round"/>
<path d="M169 148H178.764H194.387L224 114H199.567L169 148Z" stroke="black" stroke-width="2" stroke-miterlimit="10" stroke-linecap="round" stroke-linejoin="round"/>
<path d="M19.6032 126.684C27.0135 126.684 33.0207 120.751 33.0207 113.432C33.0207 106.113 27.0135 100.179 19.6032 100.179C12.193 100.179 6.18573 106.113 6.18573 113.432C6.18573 120.751 12.193 126.684 19.6032 126.684Z" stroke="black" stroke-width="2" stroke-miterlimit="10" stroke-linecap="round" stroke-linejoin="round"/>
<path d="M190.5 39.5L150.118 19.3342L173.469 10.4675L205.546 26.7969" stroke="black" stroke-width="2" stroke-miterlimit="10" stroke-linecap="round" stroke-linejoin="round"/>
<path d="M153.041 54.5581L129.685 63.4195L88.7908 42.5565L112.158 33.7056L153.041 54.5581Z" stroke="black" stroke-width="2" stroke-miterlimit="10" stroke-linecap="round" stroke-linejoin="round"/>
<path d="M93.5 77L70.5107 85.7392L30 65L53.5 56L93.5 77Z" stroke="black" stroke-width="2" stroke-miterlimit="10" stroke-linecap="round" stroke-linejoin="round"/>
<line x1="24" y1="234" x2="231" y2="234" stroke="black" stroke-width="2"/>
<g style="mix-blend-mode:color-dodge">
<path d="M226 249.5L226.434 249.748L226.434 249.748L226.434 249.747L226.436 249.745L226.44 249.738L226.457 249.708L226.523 249.593C226.579 249.493 226.662 249.348 226.763 249.168C226.967 248.808 227.249 248.307 227.562 247.743C228.187 246.617 228.942 245.234 229.447 244.224C229.736 243.647 229.931 242.765 230.073 241.824C230.216 240.867 230.311 239.788 230.374 238.781C230.437 237.773 230.468 236.828 230.484 236.136C230.492 235.79 230.496 235.507 230.498 235.31C230.499 235.211 230.499 235.134 230.5 235.081L230.5 235.021L230.5 235.006V235.002V235V235C230.5 235 230.5 235 230 235H230.5V234.5H230H26H25.5V235H26L25.5 235V235V235.001V235.001V235.002V235.003V235.004V235.006V235.007V235.009V235.013V235.018V235.023V235.09V235.345V236.258V239.062V243.5C25.5 243.644 25.5452 243.818 25.5869 243.959C25.6345 244.12 25.7016 244.314 25.7822 244.528C25.9438 244.956 26.1679 245.484 26.4226 246.025C26.6772 246.566 26.9657 247.128 27.2569 247.621C27.5431 248.106 27.8502 248.557 28.1464 248.854L28.1604 248.868C29.1536 249.861 30.6814 251.389 32.2227 252.416C32.5197 252.614 32.7734 252.81 33.0308 253.01C33.0827 253.05 33.1348 253.09 33.1873 253.131C33.4954 253.368 33.8181 253.607 34.1981 253.814C34.9766 254.239 35.939 254.5 37.5 254.5H37.5176H37.5354H37.5532H37.5711H37.5892H37.6073H37.6255H37.6439H37.6623H37.6808H37.6995H37.7182H37.737H37.7559H37.775H37.7941H37.8133H37.8326H37.852H37.8714H37.891H37.9107H37.9305H37.9503H37.9702H37.9903H38.0104H38.0306H38.0509H38.0713H38.0917H38.1123H38.1329H38.1537H38.1745H38.1954H38.2164H38.2374H38.2586H38.2798H38.3011H38.3225H38.344H38.3655H38.3872H38.4089H38.4306H38.4525H38.4745H38.4965H38.5186H38.5407H38.563H38.5853H38.6077H38.6302H38.6527H38.6753H38.698H38.7208H38.7436H38.7665H38.7895H38.8125H38.8356H38.8588H38.882H38.9053H38.9287H38.9521H38.9756H38.9992H39.0229H39.0466H39.0703H39.0941H39.118H39.142H39.166H39.1901H39.2142H39.2384H39.2626H39.2869H39.3113H39.3357H39.3602H39.3847H39.4093H39.434H39.4587H39.4834H39.5083H39.5331H39.558H39.583H39.608H39.6331H39.6582H39.6834H39.7086H39.7339H39.7592H39.7846H39.81H39.8354H39.8609H39.8865H39.9121H39.9377H39.9634H39.9891H40.0149H40.0407H40.0666H40.0925H40.1184H40.1444H40.1704H40.1965H40.2226H40.2487H40.2749H40.3011H40.3273H40.3536H40.3799H40.4062H40.4326H40.4591H40.4855H40.512H40.5385H40.5651H40.5916H40.6182H40.6449H40.6715H40.6982H40.725H40.7517H40.7785H40.8053H40.8322H40.859H40.8859H40.9128H40.9397H40.9667H40.9937H41.0207H41.0477H41.0748H41.1018H41.1289H41.156H41.1832H41.2103H41.2375H41.2646H41.2918H41.3191H41.3463H41.3735H41.4008H41.4281H41.4554H41.4827H41.51H41.5373H41.5647H41.592H41.6194H41.6468H41.6741H41.7015H41.7289H41.7563H41.7838H41.8112H41.8386H41.8661H41.8935H41.9209H41.9484H41.9758H42.0033H42.0308H42.0582H42.0857H42.1132H42.1406H42.1681H42.1956H42.223H42.2505H42.2779H42.3054H42.3329H42.3603H42.3878H42.4152H42.4426H42.4701H42.4975H42.5249H42.5523H42.5797H42.6071H42.6345H42.6619H42.6892H42.7166H42.7439H42.7712H42.7986H42.8259H42.8532H42.8804H42.9077H42.935H42.9622H42.9894H43.0166H43.0438H43.0709H43.0981H43.1252H43.1523H43.1794H43.2065H43.2335H43.2606H43.2876H43.3145H43.3415H43.3684H43.3953H43.4222H43.4491H43.4759H43.5027H43.5295H43.5563H43.583H43.6097H43.6364H43.663H43.6896H43.7162H43.7427H43.7693H43.7957H43.8222H43.8486H43.875H43.9013H43.9277H43.9539H43.9802H44.0064H44.0326H44.0587H44.0848H44.1108H44.1369H44.1628H44.1888H44.2147H44.2405H44.2663H44.2921H44.3178H44.3435H44.3692H44.3948H44.4203H44.4458H44.4713H44.4967H44.5221H44.5474H44.5726H44.5979H44.623H44.6481H44.6732H44.6982H44.7232H44.7481H44.773H44.7978H44.8226H44.8473H44.8719H44.8965H44.921H44.9455H44.9699H44.9943H45.0186H45.0429H45.0671H45.0912H45.1153H45.1393H45.1632H45.1871H45.2109H45.2347H45.2584H45.282H45.3056H45.3291H45.3525H45.3759H45.3992H45.4225H45.4456H45.4687H45.4918H45.5148H45.5376H45.5605H45.5832H45.6059H45.6285H45.6511H45.6735H45.6959H45.7183H45.7405H45.7627H45.7848H45.8068H45.8287H45.8506H45.8724H45.8941H45.9157H45.9373H45.9587H45.9801H46.0014H46.0227H46.0438H46.0649H46.0859H46.1068H46.1276H46.1483H46.1689H46.1895H46.21H46.2304H46.2506H46.2709H46.291H46.311H46.3309H46.3508H46.3706H46.3902H46.4098H46.4293H46.4487H46.468H46.4872H46.5063H46.5253H46.5442H46.563H46.5818H46.6004H46.6189H46.6374H46.6557H46.6739H46.6921H46.7101H46.7281H46.7459H46.7636H46.7812H46.7988H46.8162H46.8335H46.8507H46.8678H46.8848H46.9017H46.9185H46.9352H46.9518H46.9683H46.9846H47.0009H47.017H47.033H47.0489H47.0648H47.0804H47.096H47.1115H47.1268H47.1421H47.1572H47.1722H47.1871H47.2019H47.2166H47.2311H47.2455H47.2598H47.274H47.2881H47.302H47.3159H47.3296H47.3431H47.3566H47.3699H47.3832H47.3963H47.4092H47.4221H47.4348H47.4474H47.4598H47.4722H47.4844H47.4965H47.5084H47.5202H47.5319H47.5435H47.5549H47.5662H47.5774H47.5884H47.5993H47.6101H47.6207H47.6312H47.6416H47.6518H47.6619H47.6719H47.6817H47.6914H47.7009H47.7103H47.7196H47.7287H47.7377H47.7465H47.7552H47.7638H47.7722H47.7805H47.7886H47.7966H47.8044H47.8121H47.8197H47.8271H47.8343H47.8414H47.8484H47.8552H47.8619H47.8684H47.8748H47.881H47.887H47.8929H47.8987H47.9043H47.9097H47.915H47.9202H47.9252H47.93H47.9347H47.9392H47.9435H47.9477H47.9518H47.9557H47.9594H47.963H47.9664H47.9696H47.9727H47.9756H47.9784H47.981H47.9834H47.9857H47.9878H47.9897H47.9915H47.9931H47.9945H47.9958H47.9969H47.9979H47.9986H47.9992H47.9997H47.9999L48 254V254.5L74.5 254.5L74.5047 254.5L128 254H128.002H179H209.5V253.5C209.5 254 209.5 254 209.5 254H209.5H209.501H209.502H209.503H209.504H209.505H209.507H209.508H209.51H209.512H209.515H209.517H209.52H209.523H209.526H209.529H209.533H209.536H209.54H209.544H209.549H209.553H209.558H209.562H209.568H209.573H209.578H209.584H209.589H209.595H209.602H209.608H209.614H209.621H209.628H209.635H209.642H209.65H209.657H209.665H209.673H209.681H209.689H209.698H209.706H209.715H209.724H209.733H209.743H209.752H209.762H209.772H209.782H209.792H209.802H209.813H209.823H209.834H209.845H209.856H209.867H209.879H209.891H209.902H209.914H209.926H209.939H209.951H209.964H209.977H209.989H210.002H210.016H210.029H210.043H210.056H210.07H210.084H210.098H210.112H210.127H210.141H210.156H210.171H210.186H210.201H210.216H210.232H210.247H210.263H210.279H210.295H210.311H210.327H210.344H210.36H210.377H210.394H210.411H210.428H210.445H210.462H210.48H210.498H210.515H210.533H210.551H210.569H210.588H210.606H210.624H210.643H210.662H210.681H210.7H210.719H210.738H210.758H210.777H210.797H210.817H210.836H210.856H210.876H210.897H210.917H210.937H210.958H210.979H211H211.02H211.041H211.063H211.084H211.105H211.127H211.148H211.17H211.192H211.213H211.235H211.258H211.28H211.302H211.324H211.347H211.37H211.392H211.415H211.438H211.461H211.484H211.507H211.531H211.554H211.577H211.601H211.625H211.648H211.672H211.696H211.72H211.744H211.769H211.793H211.817H211.842H211.866H211.891H211.916H211.94H211.965H211.99H212.015H212.04H212.066H212.091H212.116H212.142H212.167H212.193H212.219H212.244H212.27H212.296H212.322H212.348H212.374H212.4H212.427H212.453H212.479H212.506H212.533H212.559H212.586H212.613H212.639H212.666H212.693H212.72H212.747H212.774H212.801H212.829H212.856H212.883H212.911H212.938H212.966H212.993H213.021H213.049H213.076H213.104H213.132H213.16H213.188H213.216H213.244H213.272H213.3H213.328H213.356H213.385H213.413H213.441H213.47H213.498H213.527H213.555H213.584H213.612H213.641H213.67H213.698H213.727H213.756H213.785H213.813H213.842H213.871H213.9H213.929H213.958H213.987H214.016H214.045H214.075H214.104H214.133H214.162H214.191H214.221H214.25H214.279H214.309H214.338H214.367H214.397H214.426H214.456H214.485H214.514H214.544H214.573H214.603H214.633H214.662H214.692H214.721H214.751H214.78H214.81H214.84H214.869H214.899H214.928H214.958H214.988H215.017H215.047H215.077H215.106H215.136H215.166H215.195H215.225H215.255H215.284H215.314H215.344H215.373H215.403H215.433H215.462H215.492H215.521H215.551H215.581H215.61H215.64H215.669H215.699H215.729H215.758H215.788H215.817H215.847H215.876H215.906H215.935H215.964H215.994H216.023H216.053H216.082H216.111H216.141H216.17H216.199H216.228H216.258H216.287H216.316H216.345H216.374H216.403H216.432H216.461H216.49H216.519H216.548H216.577H216.606H216.635H216.664H216.692H216.721H216.75H216.778H216.807H216.835H216.864H216.892H216.921H216.949H216.978H217.006H217.034H217.062H217.091H217.119H217.147H217.175H217.203H217.231H217.259H217.287H217.314H217.342H217.37H217.397H217.425H217.452H217.48H217.507H217.535H217.562H217.589H217.616H217.643H217.67H217.697H217.724H217.751H217.778H217.805H217.831H217.858H217.885H217.911H217.937H217.964H217.99H218.016H218.042H218.068H218.094H218.12H218.146H218.172H218.198H218.223H218.249H218.274H218.3H218.325H218.35H218.375H218.4H218.425H218.45H218.475H218.5H218.524H218.549H218.573H218.598H218.622H218.646H218.67H218.694H218.718H218.742H218.766H218.79H218.813H218.837H218.86H218.883H218.906H218.93H218.953H218.975H218.998H219.021H219.044H219.066H219.089H219.111H219.133H219.155H219.177H219.199H219.221H219.242H219.264H219.285H219.307H219.328H219.349H219.37H219.391H219.412H219.433H219.453H219.474H219.494H219.514H219.534H219.554H219.574H219.594H219.613H219.633H219.652H219.672H219.691H219.71H219.729H219.747H219.766H219.785H219.803H219.821H219.839H219.857H219.875H219.893H219.911H219.928H219.946H219.963H219.98H219.997H220.014H220.03H220.047H220.063H220.08H220.096H220.112H220.128H220.143H220.159H220.174H220.19H220.205H220.22H220.234H220.249H220.264H220.278H220.292H220.307H220.321H220.334H220.348H220.362H220.375H220.388H220.401H220.414H220.427H220.439H220.452H220.464H220.476H220.488H220.5C221.144 254 221.837 253.687 222.465 253.301C223.109 252.904 223.759 252.383 224.332 251.874C224.908 251.362 225.417 250.852 225.783 250.471C225.966 250.28 226.113 250.121 226.215 250.009C226.266 249.952 226.306 249.908 226.333 249.878L226.365 249.842L226.373 249.833L226.375 249.83L226.376 249.83L226.376 249.829C226.376 249.829 226.376 249.829 226 249.5ZM226 249.5L226.434 249.748L226.409 249.792L226.376 249.829L226 249.5Z" fill="#333333"/>
<path d="M226 249.5L226.434 249.748L226.434 249.748L226.434 249.747L226.436 249.745L226.44 249.738L226.457 249.708L226.523 249.593C226.579 249.493 226.662 249.348 226.763 249.168C226.967 248.808 227.249 248.307 227.562 247.743C228.187 246.617 228.942 245.234 229.447 244.224C229.736 243.647 229.931 242.765 230.073 241.824C230.216 240.867 230.311 239.788 230.374 238.781C230.437 237.773 230.468 236.828 230.484 236.136C230.492 235.79 230.496 235.507 230.498 235.31C230.499 235.211 230.499 235.134 230.5 235.081L230.5 235.021L230.5 235.006V235.002V235V235C230.5 235 230.5 235 230 235H230.5V234.5H230H26H25.5V235H26L25.5 235V235V235.001V235.001V235.002V235.003V235.004V235.006V235.007V235.009V235.013V235.018V235.023V235.09V235.345V236.258V239.062V243.5C25.5 243.644 25.5452 243.818 25.5869 243.959C25.6345 244.12 25.7016 244.314 25.7822 244.528C25.9438 244.956 26.1679 245.484 26.4226 246.025C26.6772 246.566 26.9657 247.128 27.2569 247.621C27.5431 248.106 27.8502 248.557 28.1464 248.854L28.1604 248.868C29.1536 249.861 30.6814 251.389 32.2227 252.416C32.5197 252.614 32.7734 252.81 33.0308 253.01C33.0827 253.05 33.1348 253.09 33.1873 253.131C33.4954 253.368 33.8181 253.607 34.1981 253.814C34.9766 254.239 35.939 254.5 37.5 254.5H37.5176H37.5354H37.5532H37.5711H37.5892H37.6073H37.6255H37.6439H37.6623H37.6808H37.6995H37.7182H37.737H37.7559H37.775H37.7941H37.8133H37.8326H37.852H37.8714H37.891H37.9107H37.9305H37.9503H37.9702H37.9903H38.0104H38.0306H38.0509H38.0713H38.0917H38.1123H38.1329H38.1537H38.1745H38.1954H38.2164H38.2374H38.2586H38.2798H38.3011H38.3225H38.344H38.3655H38.3872H38.4089H38.4306H38.4525H38.4745H38.4965H38.5186H38.5407H38.563H38.5853H38.6077H38.6302H38.6527H38.6753H38.698H38.7208H38.7436H38.7665H38.7895H38.8125H38.8356H38.8588H38.882H38.9053H38.9287H38.9521H38.9756H38.9992H39.0229H39.0466H39.0703H39.0941H39.118H39.142H39.166H39.1901H39.2142H39.2384H39.2626H39.2869H39.3113H39.3357H39.3602H39.3847H39.4093H39.434H39.4587H39.4834H39.5083H39.5331H39.558H39.583H39.608H39.6331H39.6582H39.6834H39.7086H39.7339H39.7592H39.7846H39.81H39.8354H39.8609H39.8865H39.9121H39.9377H39.9634H39.9891H40.0149H40.0407H40.0666H40.0925H40.1184H40.1444H40.1704H40.1965H40.2226H40.2487H40.2749H40.3011H40.3273H40.3536H40.3799H40.4062H40.4326H40.4591H40.4855H40.512H40.5385H40.5651H40.5916H40.6182H40.6449H40.6715H40.6982H40.725H40.7517H40.7785H40.8053H40.8322H40.859H40.8859H40.9128H40.9397H40.9667H40.9937H41.0207H41.0477H41.0748H41.1018H41.1289H41.156H41.1832H41.2103H41.2375H41.2646H41.2918H41.3191H41.3463H41.3735H41.4008H41.4281H41.4554H41.4827H41.51H41.5373H41.5647H41.592H41.6194H41.6468H41.6741H41.7015H41.7289H41.7563H41.7838H41.8112H41.8386H41.8661H41.8935H41.9209H41.9484H41.9758H42.0033H42.0308H42.0582H42.0857H42.1132H42.1406H42.1681H42.1956H42.223H42.2505H42.2779H42.3054H42.3329H42.3603H42.3878H42.4152H42.4426H42.4701H42.4975H42.5249H42.5523H42.5797H42.6071H42.6345H42.6619H42.6892H42.7166H42.7439H42.7712H42.7986H42.8259H42.8532H42.8804H42.9077H42.935H42.9622H42.9894H43.0166H43.0438H43.0709H43.0981H43.1252H43.1523H43.1794H43.2065H43.2335H43.2606H43.2876H43.3145H43.3415H43.3684H43.3953H43.4222H43.4491H43.4759H43.5027H43.5295H43.5563H43.583H43.6097H43.6364H43.663H43.6896H43.7162H43.7427H43.7693H43.7957H43.8222H43.8486H43.875H43.9013H43.9277H43.9539H43.9802H44.0064H44.0326H44.0587H44.0848H44.1108H44.1369H44.1628H44.1888H44.2147H44.2405H44.2663H44.2921H44.3178H44.3435H44.3692H44.3948H44.4203H44.4458H44.4713H44.4967H44.5221H44.5474H44.5726H44.5979H44.623H44.6481H44.6732H44.6982H44.7232H44.7481H44.773H44.7978H44.8226H44.8473H44.8719H44.8965H44.921H44.9455H44.9699H44.9943H45.0186H45.0429H45.0671H45.0912H45.1153H45.1393H45.1632H45.1871H45.2109H45.2347H45.2584H45.282H45.3056H45.3291H45.3525H45.3759H45.3992H45.4225H45.4456H45.4687H45.4918H45.5148H45.5376H45.5605H45.5832H45.6059H45.6285H45.6511H45.6735H45.6959H45.7183H45.7405H45.7627H45.7848H45.8068H45.8287H45.8506H45.8724H45.8941H45.9157H45.9373H45.9587H45.9801H46.0014H46.0227H46.0438H46.0649H46.0859H46.1068H46.1276H46.1483H46.1689H46.1895H46.21H46.2304H46.2506H46.2709H46.291H46.311H46.3309H46.3508H46.3706H46.3902H46.4098H46.4293H46.4487H46.468H46.4872H46.5063H46.5253H46.5442H46.563H46.5818H46.6004H46.6189H46.6374H46.6557H46.6739H46.6921H46.7101H46.7281H46.7459H46.7636H46.7812H46.7988H46.8162H46.8335H46.8507H46.8678H46.8848H46.9017H46.9185H46.9352H46.9518H46.9683H46.9846H47.0009H47.017H47.033H47.0489H47.0648H47.0804H47.096H47.1115H47.1268H47.1421H47.1572H47.1722H47.1871H47.2019H47.2166H47.2311H47.2455H47.2598H47.274H47.2881H47.302H47.3159H47.3296H47.3431H47.3566H47.3699H47.3832H47.3963H47.4092H47.4221H47.4348H47.4474H47.4598H47.4722H47.4844H47.4965H47.5084H47.5202H47.5319H47.5435H47.5549H47.5662H47.5774H47.5884H47.5993H47.6101H47.6207H47.6312H47.6416H47.6518H47.6619H47.6719H47.6817H47.6914H47.7009H47.7103H47.7196H47.7287H47.7377H47.7465H47.7552H47.7638H47.7722H47.7805H47.7886H47.7966H47.8044H47.8121H47.8197H47.8271H47.8343H47.8414H47.8484H47.8552H47.8619H47.8684H47.8748H47.881H47.887H47.8929H47.8987H47.9043H47.9097H47.915H47.9202H47.9252H47.93H47.9347H47.9392H47.9435H47.9477H47.9518H47.9557H47.9594H47.963H47.9664H47.9696H47.9727H47.9756H47.9784H47.981H47.9834H47.9857H47.9878H47.9897H47.9915H47.9931H47.9945H47.9958H47.9969H47.9979H47.9986H47.9992H47.9997H47.9999L48 254V254.5L74.5 254.5L74.5047 254.5L128 254H128.002H179H209.5V253.5C209.5 254 209.5 254 209.5 254H209.5H209.501H209.502H209.503H209.504H209.505H209.507H209.508H209.51H209.512H209.515H209.517H209.52H209.523H209.526H209.529H209.533H209.536H209.54H209.544H209.549H209.553H209.558H209.562H209.568H209.573H209.578H209.584H209.589H209.595H209.602H209.608H209.614H209.621H209.628H209.635H209.642H209.65H209.657H209.665H209.673H209.681H209.689H209.698H209.706H209.715H209.724H209.733H209.743H209.752H209.762H209.772H209.782H209.792H209.802H209.813H209.823H209.834H209.845H209.856H209.867H209.879H209.891H209.902H209.914H209.926H209.939H209.951H209.964H209.977H209.989H210.002H210.016H210.029H210.043H210.056H210.07H210.084H210.098H210.112H210.127H210.141H210.156H210.171H210.186H210.201H210.216H210.232H210.247H210.263H210.279H210.295H210.311H210.327H210.344H210.36H210.377H210.394H210.411H210.428H210.445H210.462H210.48H210.498H210.515H210.533H210.551H210.569H210.588H210.606H210.624H210.643H210.662H210.681H210.7H210.719H210.738H210.758H210.777H210.797H210.817H210.836H210.856H210.876H210.897H210.917H210.937H210.958H210.979H211H211.02H211.041H211.063H211.084H211.105H211.127H211.148H211.17H211.192H211.213H211.235H211.258H211.28H211.302H211.324H211.347H211.37H211.392H211.415H211.438H211.461H211.484H211.507H211.531H211.554H211.577H211.601H211.625H211.648H211.672H211.696H211.72H211.744H211.769H211.793H211.817H211.842H211.866H211.891H211.916H211.94H211.965H211.99H212.015H212.04H212.066H212.091H212.116H212.142H212.167H212.193H212.219H212.244H212.27H212.296H212.322H212.348H212.374H212.4H212.427H212.453H212.479H212.506H212.533H212.559H212.586H212.613H212.639H212.666H212.693H212.72H212.747H212.774H212.801H212.829H212.856H212.883H212.911H212.938H212.966H212.993H213.021H213.049H213.076H213.104H213.132H213.16H213.188H213.216H213.244H213.272H213.3H213.328H213.356H213.385H213.413H213.441H213.47H213.498H213.527H213.555H213.584H213.612H213.641H213.67H213.698H213.727H213.756H213.785H213.813H213.842H213.871H213.9H213.929H213.958H213.987H214.016H214.045H214.075H214.104H214.133H214.162H214.191H214.221H214.25H214.279H214.309H214.338H214.367H214.397H214.426H214.456H214.485H214.514H214.544H214.573H214.603H214.633H214.662H214.692H214.721H214.751H214.78H214.81H214.84H214.869H214.899H214.928H214.958H214.988H215.017H215.047H215.077H215.106H215.136H215.166H215.195H215.225H215.255H215.284H215.314H215.344H215.373H215.403H215.433H215.462H215.492H215.521H215.551H215.581H215.61H215.64H215.669H215.699H215.729H215.758H215.788H215.817H215.847H215.876H215.906H215.935H215.964H215.994H216.023H216.053H216.082H216.111H216.141H216.17H216.199H216.228H216.258H216.287H216.316H216.345H216.374H216.403H216.432H216.461H216.49H216.519H216.548H216.577H216.606H216.635H216.664H216.692H216.721H216.75H216.778H216.807H216.835H216.864H216.892H216.921H216.949H216.978H217.006H217.034H217.062H217.091H217.119H217.147H217.175H217.203H217.231H217.259H217.287H217.314H217.342H217.37H217.397H217.425H217.452H217.48H217.507H217.535H217.562H217.589H217.616H217.643H217.67H217.697H217.724H217.751H217.778H217.805H217.831H217.858H217.885H217.911H217.937H217.964H217.99H218.016H218.042H218.068H218.094H218.12H218.146H218.172H218.198H218.223H218.249H218.274H218.3H218.325H218.35H218.375H218.4H218.425H218.45H218.475H218.5H218.524H218.549H218.573H218.598H218.622H218.646H218.67H218.694H218.718H218.742H218.766H218.79H218.813H218.837H218.86H218.883H218.906H218.93H218.953H218.975H218.998H219.021H219.044H219.066H219.089H219.111H219.133H219.155H219.177H219.199H219.221H219.242H219.264H219.285H219.307H219.328H219.349H219.37H219.391H219.412H219.433H219.453H219.474H219.494H219.514H219.534H219.554H219.574H219.594H219.613H219.633H219.652H219.672H219.691H219.71H219.729H219.747H219.766H219.785H219.803H219.821H219.839H219.857H219.875H219.893H219.911H219.928H219.946H219.963H219.98H219.997H220.014H220.03H220.047H220.063H220.08H220.096H220.112H220.128H220.143H220.159H220.174H220.19H220.205H220.22H220.234H220.249H220.264H220.278H220.292H220.307H220.321H220.334H220.348H220.362H220.375H220.388H220.401H220.414H220.427H220.439H220.452H220.464H220.476H220.488H220.5C221.144 254 221.837 253.687 222.465 253.301C223.109 252.904 223.759 252.383 224.332 251.874C224.908 251.362 225.417 250.852 225.783 250.471C225.966 250.28 226.113 250.121 226.215 250.009C226.266 249.952 226.306 249.908 226.333 249.878L226.365 249.842L226.373 249.833L226.375 249.83L226.376 249.83L226.376 249.829C226.376 249.829 226.376 249.829 226 249.5ZM226 249.5L226.434 249.748L226.409 249.792L226.376 249.829L226 249.5Z" stroke="black"/>
</g>
<path d="M64.1247 199.969L64.2653 201.75C62.6091 202.25 61.0309 202.5 59.5309 202.5C58.0934 202.5 56.8591 202.109 55.8278 201.328C54.8278 200.578 54.0622 199.625 53.5309 198.469C53.0309 197.312 52.5153 196.062 51.9841 194.719C51.4841 193.375 50.9997 192.125 50.5309 190.969C50.0934 189.812 49.4372 188.859 48.5622 188.109C47.6872 187.328 46.6403 186.938 45.4216 186.938L45.8903 200.719C45.6091 201.688 45.0622 202.172 44.2497 202.172C43.6872 202.172 43.1403 201.938 42.6091 201.469C42.1091 201 41.7966 200.438 41.6716 199.781C41.7028 199.125 41.8122 193.844 41.9997 183.938C42.1872 174 42.3278 168.25 42.4216 166.688L44.5309 167.156C44.5622 168.344 44.6559 170.578 44.8122 173.859C44.9684 177.109 45.0622 179.312 45.0934 180.469C46.4372 180.438 47.5778 179.938 48.5153 178.969C49.4841 177.969 50.2653 176.766 50.8591 175.359C51.4841 173.953 52.1091 172.562 52.7341 171.188C53.3591 169.781 54.1716 168.594 55.1716 167.625C56.2028 166.625 57.4216 166.125 58.8278 166.125C59.8903 166.125 61.6872 166.359 64.2184 166.828L63.7497 168.703C61.8122 168.391 60.7028 168.234 60.4216 168.234C59.3278 168.234 58.4059 168.688 57.6559 169.594C56.9059 170.5 56.2809 171.641 55.7809 173.016C55.2809 174.359 54.7341 175.75 54.1403 177.188C53.5466 178.594 52.6716 179.891 51.5153 181.078C50.3591 182.266 48.9372 183.062 47.2497 183.469C48.7497 183.812 50.0466 184.484 51.1403 185.484C52.2341 186.484 53.0466 187.609 53.5778 188.859C54.1091 190.109 54.6247 191.438 55.1247 192.844C55.6247 194.219 56.0622 195.469 56.4372 196.594C56.8122 197.719 57.3278 198.656 57.9841 199.406C58.6716 200.156 59.4997 200.531 60.4684 200.531C61.4059 200.531 62.6247 200.344 64.1247 199.969ZM70.7922 197.109C70.7922 197.641 70.8234 198.344 70.8859 199.219C70.6047 200.188 70.0578 200.672 69.2453 200.672C68.6828 200.672 68.1359 200.453 67.6047 200.016C67.1047 199.547 66.7922 198.984 66.6672 198.328C66.7609 195.797 66.8703 192.094 66.9953 187.219C67.1516 182.344 67.2609 179.047 67.3234 177.328L69.4797 176.953C69.8547 178.953 70.0891 181.609 70.1828 184.922C70.2766 188.234 70.4016 190.703 70.5578 192.328C71.1516 191.453 72.8391 189.172 75.6203 185.484C78.4016 181.797 80.2922 179.047 81.2922 177.234C81.9797 177.109 82.4172 177.047 82.6047 177.047C83.1984 177.047 83.6047 177.312 83.8234 177.844C84.0734 178.375 84.2297 179.375 84.2922 180.844L85.1828 200.156C84.9016 201.094 84.3547 201.562 83.5422 201.562C82.9797 201.562 82.4328 201.344 81.9016 200.906C81.4016 200.438 81.0891 199.875 80.9641 199.219C80.9953 198.188 81.0734 195.672 81.1984 191.672C81.3547 187.641 81.4797 184.781 81.5734 183.094C76.2297 189.188 72.6359 193.859 70.7922 197.109ZM103.522 177.234L105.632 177.703L106.71 200.438C106.428 201.375 105.882 201.844 105.069 201.844C104.507 201.844 103.96 201.609 103.428 201.141C102.897 200.703 102.569 200.156 102.444 199.5C102.444 199.406 102.585 196.766 102.866 191.578V191.203C101.991 191.141 100.694 191.109 98.9753 191.109C96.3816 191.109 94.4284 191.031 93.1159 190.875C93.2722 192.688 93.4753 195.609 93.7253 199.641C93.4441 200.609 92.8972 201.094 92.0847 201.094C91.5222 201.094 90.9753 200.875 90.4441 200.438C89.9441 199.969 89.6316 199.406 89.5066 198.75C89.6003 197.188 89.6472 195.625 89.6472 194.062C89.6472 193.062 89.6316 191.562 89.6003 189.562C89.5691 187.562 89.5534 186.078 89.5534 185.109C89.5534 182.109 89.6472 179.594 89.8347 177.562L91.9441 178.078C92.5691 184.859 92.8972 188.344 92.9284 188.531C98.2722 188.812 101.022 188.953 101.178 188.953C102.46 188.953 103.1 188.875 103.1 188.719C103.1 188.094 103.163 186.109 103.288 182.766C103.413 179.422 103.491 177.578 103.522 177.234ZM110.987 191.016C110.987 189.766 111.112 188.375 111.362 186.844C111.643 185.312 112.049 183.703 112.58 182.016C113.112 180.328 113.908 178.922 114.971 177.797C116.033 176.672 117.268 176.109 118.674 176.109C121.674 176.109 124.08 177.469 125.893 180.188C127.705 182.875 128.612 185.875 128.612 189.188C128.612 190.594 128.455 192 128.143 193.406C127.862 194.781 127.408 196.141 126.783 197.484C126.158 198.828 125.252 199.953 124.065 200.859C122.908 201.734 121.549 202.234 119.987 202.359C117.112 201.984 114.893 200.766 113.33 198.703C111.768 196.609 110.987 194.047 110.987 191.016ZM118.955 178.547C117.862 178.672 116.94 179.672 116.19 181.547C115.44 183.422 114.955 185.25 114.737 187.031C114.518 188.781 114.408 190.328 114.408 191.672C114.408 193.422 114.94 195.047 116.002 196.547C117.096 198.016 118.315 198.75 119.658 198.75C120.627 198.75 121.502 198.375 122.283 197.625C123.065 196.875 123.674 195.953 124.112 194.859C124.58 193.734 124.924 192.609 125.143 191.484C125.393 190.359 125.518 189.359 125.518 188.484C125.518 185.922 124.94 183.688 123.783 181.781C122.627 179.875 121.018 178.797 118.955 178.547ZM131.388 179.484L130.967 177.422C135.154 177.172 141.748 176.828 150.748 176.391C151.498 176.422 152.138 176.703 152.67 177.234C153.201 177.766 153.467 178.328 153.467 178.922C153.467 179.859 152.842 180.391 151.592 180.516L142.826 180.094C142.982 182.438 143.06 185.859 143.06 190.359C143.092 194.828 143.154 198.094 143.248 200.156C142.967 201.062 142.42 201.516 141.607 201.516C141.076 201.516 140.56 201.297 140.06 200.859C139.56 200.422 139.248 199.891 139.123 199.266C139.56 191.578 140.013 185.125 140.482 179.906L131.388 179.484ZM174.759 196.453L175.228 198.516C173.853 199.016 171.806 199.578 169.087 200.203C166.4 200.797 164.4 201.094 163.087 201.094C161.743 201.094 160.572 200.656 159.572 199.781C158.572 198.875 157.822 197.734 157.322 196.359C156.822 194.953 156.447 193.578 156.197 192.234C155.978 190.859 155.868 189.516 155.868 188.203C155.868 180.391 159.4 176.484 166.462 176.484C168.15 176.484 169.634 177.031 170.915 178.125C172.197 179.188 172.837 180.578 172.837 182.297C172.837 183.234 172.572 184.062 172.04 184.781C171.54 185.5 170.915 186.078 170.165 186.516C169.447 186.922 168.509 187.297 167.353 187.641C166.228 187.984 165.228 188.234 164.353 188.391C163.478 188.547 162.431 188.719 161.212 188.906C159.993 189.094 159.15 189.234 158.681 189.328C158.712 190.234 158.759 191.031 158.822 191.719C158.915 192.406 159.072 193.156 159.29 193.969C159.54 194.75 159.853 195.406 160.228 195.938C160.634 196.438 161.181 196.859 161.868 197.203C162.556 197.547 163.368 197.719 164.306 197.719C165.431 197.719 166.806 197.625 168.431 197.438C170.056 197.219 171.493 197 172.743 196.781C174.025 196.562 174.697 196.453 174.759 196.453ZM158.868 186.422C163.118 185.203 166.603 183.922 169.322 182.578C169.103 181.547 168.806 180.797 168.431 180.328C168.056 179.859 167.493 179.625 166.743 179.625C164.837 179.625 163.103 180.281 161.54 181.594C160.009 182.906 159.118 184.516 158.868 186.422ZM194.364 199.828L194.505 201.891C193.755 202.078 193.223 202.172 192.911 202.172C191.723 202.172 190.645 201.781 189.677 201C188.708 200.219 187.911 199.266 187.286 198.141C186.661 197.016 186.067 195.891 185.505 194.766C184.973 193.641 184.395 192.688 183.77 191.906C183.145 191.125 182.505 190.734 181.848 190.734C181.598 190.734 181.364 190.781 181.145 190.875C181.27 192.75 181.489 195.781 181.802 199.969C181.52 200.938 180.973 201.422 180.161 201.422C179.598 201.422 179.052 201.203 178.52 200.766C178.02 200.297 177.708 199.734 177.583 199.078C177.708 193.828 177.77 188.891 177.77 184.266C177.77 180.859 177.911 178.156 178.192 176.156L180.302 176.906C180.552 178.125 180.692 179.875 180.723 182.156C180.755 184.406 180.786 185.797 180.817 186.328C181.755 186.172 182.567 185.688 183.255 184.875C183.973 184.062 184.552 183.141 184.989 182.109C185.458 181.078 185.942 180.062 186.442 179.062C186.942 178.062 187.583 177.219 188.364 176.531C189.177 175.844 190.13 175.5 191.223 175.5C191.786 175.5 192.661 175.688 193.848 176.062L193.661 177.656C193.473 177.625 193.223 177.609 192.911 177.609C191.661 177.609 190.567 178.141 189.63 179.203C188.723 180.234 188.036 181.391 187.567 182.672C187.13 183.922 186.567 185.125 185.88 186.281C185.192 187.438 184.442 188.109 183.63 188.297C184.786 188.578 185.77 189.359 186.583 190.641C187.427 191.922 188.052 193.25 188.458 194.625C188.895 195.969 189.52 197.203 190.333 198.328C191.145 199.422 192.145 199.969 193.333 199.969C193.645 199.969 193.989 199.922 194.364 199.828ZM198.594 180.75L197.657 178.359C198.469 177.547 199.5 176.906 200.75 176.438C202 175.938 203.235 175.688 204.453 175.688C209.735 175.688 212.375 180.25 212.375 189.375C212.375 190.625 212.297 192.469 212.141 194.906C212.016 197.344 211.953 199.172 211.953 200.391C211.703 201.359 211.219 201.844 210.5 201.844C209.938 201.844 209.422 201.562 208.953 201C208.485 200.438 208.25 199.812 208.25 199.125C208.25 198.906 208.266 198.75 208.297 198.656C206.36 200.531 204.297 201.469 202.11 201.469C200.453 201.469 199 200.875 197.75 199.688C196.532 198.469 195.922 197 195.922 195.281C195.922 192.375 197.047 189.75 199.297 187.406C201.578 185.062 204.157 183.891 207.032 183.891C207.157 183.891 207.282 183.906 207.407 183.938C207.532 183.938 207.672 183.953 207.828 183.984C208.016 184.016 208.157 184.031 208.25 184.031C208 180.375 206.547 178.547 203.891 178.547C202.328 178.547 200.563 179.281 198.594 180.75ZM208.391 195.422C208.453 193.234 208.485 191.578 208.485 190.453C208.485 189.516 208.453 188.203 208.391 186.516H208.016C205.797 186.547 203.766 187.375 201.922 189C200.11 190.625 199.203 192.594 199.203 194.906C199.203 195.906 199.5 196.703 200.094 197.297C200.719 197.891 201.469 198.188 202.344 198.188C203.719 198.188 205.735 197.266 208.391 195.422Z" fill="#FFFDFD"/>
<path d="M64.1247 199.969L65.1216 199.89C65.0984 199.597 64.9474 199.329 64.7086 199.157C64.4698 198.985 64.1675 198.927 63.8822 198.999L64.1247 199.969ZM64.2653 201.75L64.5543 202.707C65.0045 202.571 65.2992 202.14 65.2622 201.671L64.2653 201.75ZM55.8278 201.328L56.4317 200.531L56.4278 200.528L55.8278 201.328ZM53.5309 198.469L52.6131 198.866C52.6161 198.873 52.6191 198.879 52.6223 198.886L53.5309 198.469ZM51.9841 194.719L51.0468 195.067C51.0492 195.074 51.0516 195.08 51.0541 195.086L51.9841 194.719ZM50.5309 190.969L49.5957 191.323C49.5984 191.33 49.6013 191.337 49.6042 191.344L50.5309 190.969ZM48.5622 188.109L47.8962 188.855C47.9012 188.86 47.9063 188.864 47.9114 188.869L48.5622 188.109ZM45.4216 186.938V185.938C45.1504 185.938 44.891 186.048 44.7025 186.243C44.5141 186.437 44.4129 186.701 44.4221 186.971L45.4216 186.938ZM45.8903 200.719L46.8507 200.998C46.8801 200.896 46.8933 200.79 46.8897 200.685L45.8903 200.719ZM42.6091 201.469L41.9251 202.198C41.9325 202.205 41.9399 202.212 41.9474 202.219L42.6091 201.469ZM41.6716 199.781L40.6727 199.734C40.669 199.812 40.6745 199.891 40.6892 199.968L41.6716 199.781ZM41.9997 183.938L42.9995 183.956L42.9995 183.956L41.9997 183.938ZM42.4216 166.688L42.6385 165.711C42.3526 165.648 42.0533 165.713 41.8195 165.889C41.5857 166.065 41.4409 166.335 41.4234 166.628L42.4216 166.688ZM44.5309 167.156L45.5306 167.13C45.5185 166.671 45.1958 166.28 44.7479 166.18L44.5309 167.156ZM44.8122 173.859L43.8133 173.907L43.8133 173.907L44.8122 173.859ZM45.0934 180.469L44.0938 180.496C44.1087 181.046 44.566 181.481 45.1167 181.468L45.0934 180.469ZM48.5153 178.969L47.7971 178.273L47.7967 178.273L48.5153 178.969ZM50.8591 175.359L49.9453 174.953C49.9427 174.959 49.9402 174.965 49.9378 174.97L50.8591 175.359ZM52.7341 171.188L53.6445 171.601L53.6479 171.594L52.7341 171.188ZM55.1716 167.625L55.8674 168.343L55.8677 168.343L55.1716 167.625ZM64.2184 166.828L65.1886 167.071C65.2555 166.803 65.2088 166.519 65.0596 166.287C64.9104 166.055 64.6719 165.895 64.4005 165.845L64.2184 166.828ZM63.7497 168.703L63.5905 169.69C64.1032 169.773 64.5939 169.45 64.7198 168.946L63.7497 168.703ZM55.7809 173.016L56.7182 173.364L56.7207 173.357L55.7809 173.016ZM54.1403 177.188L55.0616 177.576L55.0646 177.569L54.1403 177.188ZM47.2497 183.469L47.0156 182.497C46.5644 182.605 46.2472 183.01 46.2497 183.474C46.2522 183.938 46.5739 184.34 47.0263 184.443L47.2497 183.469ZM55.1247 192.844L54.1824 193.179L54.1849 193.185L55.1247 192.844ZM57.9841 199.406L57.2315 200.065C57.2366 200.071 57.2417 200.076 57.2469 200.082L57.9841 199.406ZM63.1278 200.047L63.2684 201.829L65.2622 201.671L65.1216 199.89L63.1278 200.047ZM63.9763 200.793C62.3997 201.269 60.9194 201.5 59.5309 201.5V203.5C61.1425 203.5 62.8184 203.231 64.5543 202.707L63.9763 200.793ZM59.5309 201.5C58.2859 201.5 57.2698 201.166 56.4317 200.531L55.224 202.125C56.4483 203.053 57.9009 203.5 59.5309 203.5V201.5ZM56.4278 200.528C55.5634 199.88 54.9027 199.059 54.4396 198.051L52.6223 198.886C53.2217 200.191 54.0922 201.276 55.2278 202.128L56.4278 200.528ZM54.4488 198.072C53.9535 196.927 53.4419 195.686 52.914 194.351L51.0541 195.086C51.5887 196.439 52.1083 197.698 52.6131 198.866L54.4488 198.072ZM52.9213 194.37C52.4184 193.019 51.9305 191.759 51.4577 190.593L49.6042 191.344C50.0688 192.491 50.5497 193.731 51.0468 195.067L52.9213 194.37ZM51.4662 190.615C50.9738 189.314 50.2245 188.217 49.213 187.35L47.9114 188.869C48.6499 189.502 49.2131 190.311 49.5957 191.323L51.4662 190.615ZM49.2282 187.363C48.1623 186.412 46.8755 185.938 45.4216 185.938V187.938C46.4051 187.938 47.2121 188.245 47.8962 188.855L49.2282 187.363ZM44.4221 186.971L44.8909 200.753L46.8897 200.685L46.421 186.904L44.4221 186.971ZM44.93 200.44C44.8227 200.809 44.6939 200.982 44.6062 201.06C44.5366 201.122 44.4411 201.172 44.2497 201.172V203.172C44.8708 203.172 45.455 202.98 45.9323 202.557C46.3914 202.15 46.6767 201.597 46.8507 200.998L44.93 200.44ZM44.2497 201.172C43.9891 201.172 43.6683 201.07 43.2707 200.719L41.9474 202.219C42.6124 202.805 43.3852 203.172 44.2497 203.172V201.172ZM43.293 200.739C42.9431 200.411 42.7382 200.037 42.6539 199.594L40.6892 199.968C40.8549 200.838 41.2751 201.589 41.9251 202.198L43.293 200.739ZM42.6704 199.829C42.7026 199.154 42.8123 193.848 42.9995 183.956L40.9999 183.919C40.8121 193.839 40.703 199.096 40.6727 199.734L42.6704 199.829ZM42.9995 183.956C43.1873 174.005 43.3276 168.284 43.4198 166.747L41.4234 166.628C41.328 168.216 41.1871 173.995 40.9999 183.919L42.9995 183.956ZM42.2046 167.664L44.314 168.132L44.7479 166.18L42.6385 165.711L42.2046 167.664ZM43.5313 167.183C43.5629 168.382 43.6571 170.627 43.8133 173.907L45.8111 173.812C45.6548 170.529 45.5615 168.305 45.5306 167.13L43.5313 167.183ZM43.8133 173.907C43.9697 177.159 44.0629 179.352 44.0938 180.496L46.0931 180.442C46.0615 179.273 45.9672 177.06 45.811 173.811L43.8133 173.907ZM45.1167 181.468C46.7241 181.431 48.1142 180.821 49.2339 179.664L47.7967 178.273C47.0414 179.054 46.1503 179.444 45.0702 179.469L45.1167 181.468ZM49.2336 179.665C50.2963 178.568 51.1431 177.258 51.7803 175.748L49.9378 174.97C49.3875 176.274 48.6718 177.37 47.7971 178.273L49.2336 179.665ZM51.7729 175.766C52.3968 174.362 53.0206 172.974 53.6444 171.601L51.8237 170.774C51.1975 172.151 50.5714 173.544 49.9453 174.953L51.7729 175.766ZM53.6479 171.594C54.2263 170.292 54.9686 169.214 55.8674 168.343L54.4758 166.907C53.3746 167.974 52.4918 169.27 51.8203 170.781L53.6479 171.594ZM55.8677 168.343C56.7169 167.519 57.6876 167.125 58.8278 167.125V165.125C57.1555 165.125 55.6888 165.731 54.4754 166.907L55.8677 168.343ZM58.8278 167.125C59.7888 167.125 61.5045 167.343 64.0363 167.811L64.4005 165.845C61.8699 165.376 59.9918 165.125 58.8278 165.125V167.125ZM63.2483 166.586L62.7795 168.461L64.7198 168.946L65.1886 167.071L63.2483 166.586ZM63.9089 167.716C62.9377 167.559 62.1684 167.441 61.604 167.361C61.0752 167.287 60.6481 167.234 60.4216 167.234V169.234C60.4176 169.234 60.4353 169.234 60.4861 169.239C60.5331 169.242 60.5957 169.248 60.6761 169.257C60.8369 169.275 61.0522 169.303 61.3251 169.342C61.87 169.419 62.6242 169.535 63.5905 169.69L63.9089 167.716ZM60.4216 167.234C59.0051 167.234 57.8091 167.84 56.8855 168.956L58.4263 170.231C59.0027 169.535 59.6505 169.234 60.4216 169.234V167.234ZM56.8855 168.956C56.0472 169.969 55.3711 171.216 54.8411 172.674L56.7207 173.357C57.1908 172.065 57.7646 171.031 58.4263 170.231L56.8855 168.956ZM54.8437 172.667C54.3482 173.999 53.8057 175.378 53.2161 176.806L55.0646 177.569C55.6625 176.122 56.2137 174.72 56.7182 173.364L54.8437 172.667ZM53.2191 176.799C52.6778 178.081 51.8757 179.275 50.7988 180.381L52.2318 181.776C53.4674 180.507 54.4154 179.107 55.0616 177.576L53.2191 176.799ZM50.7988 180.381C49.7806 181.426 48.5287 182.132 47.0156 182.497L47.4837 184.441C49.3456 183.993 50.9375 183.105 52.2318 181.776L50.7988 180.381ZM47.0263 184.443C48.3647 184.75 49.5043 185.344 50.4655 186.222L51.8151 184.746C50.5888 183.625 49.1347 182.875 47.4731 182.494L47.0263 184.443ZM50.4655 186.222C51.4633 187.135 52.1872 188.144 52.6575 189.251L54.4981 188.468C53.9059 187.075 53.0048 185.834 51.8151 184.746L50.4655 186.222ZM52.6575 189.251C53.1802 190.48 53.6886 191.79 54.1825 193.179L56.0669 192.509C55.5608 191.085 55.038 189.738 54.4981 188.468L52.6575 189.251ZM54.1849 193.185C54.6825 194.554 55.1169 195.795 55.4885 196.91L57.3859 196.278C57.0075 195.142 56.5669 193.884 56.0645 192.502L54.1849 193.185ZM55.4885 196.91C55.8977 198.137 56.4728 199.198 57.2315 200.065L58.7366 198.748C58.1828 198.115 57.7267 197.3 57.3859 196.278L55.4885 196.91ZM57.2469 200.082C58.1131 201.027 59.2039 201.531 60.4684 201.531V199.531C59.7955 199.531 59.23 199.286 58.7212 198.731L57.2469 200.082ZM60.4684 201.531C61.5232 201.531 62.832 201.323 64.3672 200.939L63.8822 198.999C62.4174 199.365 61.2886 199.531 60.4684 199.531V201.531ZM70.7922 197.109L69.9224 196.616C69.8371 196.766 69.7922 196.936 69.7922 197.109H70.7922ZM70.8859 199.219L71.8463 199.498C71.8793 199.384 71.8918 199.265 71.8834 199.148L70.8859 199.219ZM67.6047 200.016L66.9207 200.745C66.9364 200.76 66.9525 200.774 66.969 200.788L67.6047 200.016ZM66.6672 198.328L65.6679 198.291C65.6651 198.366 65.6708 198.441 65.6848 198.515L66.6672 198.328ZM66.9953 187.219L65.9958 187.187L65.9956 187.193L66.9953 187.219ZM67.3234 177.328L67.1521 176.343C66.6866 176.424 66.3413 176.82 66.3241 177.292L67.3234 177.328ZM69.4797 176.953L70.4626 176.769C70.3617 176.231 69.8474 175.874 69.3083 175.968L69.4797 176.953ZM70.5578 192.328L69.5624 192.424C69.6027 192.843 69.9019 193.193 70.3102 193.297C70.7186 193.401 71.1486 193.238 71.3853 192.89L70.5578 192.328ZM81.2922 177.234L81.1133 176.251C80.8176 176.304 80.5618 176.488 80.4166 176.751L81.2922 177.234ZM83.8234 177.844L82.8988 178.224C82.905 178.24 82.9116 178.255 82.9186 178.27L83.8234 177.844ZM84.2922 180.844L83.2931 180.886L83.2932 180.89L84.2922 180.844ZM85.1828 200.156L86.1406 200.444C86.173 200.336 86.1869 200.223 86.1818 200.11L85.1828 200.156ZM81.9016 200.906L81.2176 201.636C81.2332 201.65 81.2493 201.665 81.2659 201.678L81.9016 200.906ZM80.9641 199.219L79.9645 199.188C79.9623 199.261 79.9681 199.334 79.9817 199.406L80.9641 199.219ZM81.1984 191.672L80.1992 191.633L80.1989 191.641L81.1984 191.672ZM81.5734 183.094L82.5719 183.149C82.5956 182.723 82.3464 182.329 81.9515 182.168C81.5566 182.007 81.1028 182.114 80.8216 182.434L81.5734 183.094ZM69.7922 197.109C69.7922 197.675 69.8252 198.404 69.8885 199.29L71.8834 199.148C71.8217 198.283 71.7922 197.607 71.7922 197.109H69.7922ZM69.9256 198.94C69.8183 199.309 69.6895 199.482 69.6018 199.56C69.5322 199.622 69.4367 199.672 69.2453 199.672V201.672C69.8664 201.672 70.4506 201.48 70.9279 201.057C71.387 200.65 71.6723 200.097 71.8463 199.498L69.9256 198.94ZM69.2453 199.672C68.9632 199.672 68.634 199.568 68.2404 199.244L66.969 200.788C67.6379 201.338 68.4024 201.672 69.2453 201.672V199.672ZM68.2886 199.286C67.9387 198.958 67.7339 198.584 67.6495 198.141L65.6848 198.515C65.8505 199.385 66.2707 200.136 66.9207 200.745L68.2886 199.286ZM67.6665 198.365C67.7605 195.828 67.87 192.12 67.995 187.244L65.9956 187.193C65.8707 192.067 65.7614 195.766 65.6679 198.291L67.6665 198.365ZM67.9948 187.251C68.1511 182.376 68.2604 179.081 68.3228 177.364L66.3241 177.292C66.2615 179.013 66.1521 182.312 65.9958 187.187L67.9948 187.251ZM67.4948 178.313L69.651 177.938L69.3083 175.968L67.1521 176.343L67.4948 178.313ZM68.4968 177.137C68.8581 179.064 69.0901 181.662 69.1832 184.95L71.1824 184.894C71.088 181.557 70.8513 178.842 70.4626 176.769L68.4968 177.137ZM69.1832 184.95C69.2771 188.267 69.4028 190.764 69.5624 192.424L71.5532 192.232C71.4003 190.642 71.276 188.201 71.1824 184.894L69.1832 184.95ZM71.3853 192.89C71.9616 192.04 73.6309 189.783 76.4187 186.087L74.8219 184.882C72.0472 188.561 70.3415 190.866 69.7303 191.767L71.3853 192.89ZM76.4187 186.087C79.2025 182.396 81.1307 179.597 82.1678 177.717L80.4166 176.751C79.4537 178.497 77.6006 181.198 74.8219 184.882L76.4187 186.087ZM81.4711 178.218C81.8086 178.157 82.0761 178.112 82.2774 178.084C82.3779 178.069 82.4569 178.06 82.5167 178.054C82.5806 178.047 82.6057 178.047 82.6047 178.047V176.047C82.3077 176.047 81.7717 176.131 81.1133 176.251L81.4711 178.218ZM82.6047 178.047C82.7509 178.047 82.8001 178.078 82.8074 178.083C82.8124 178.086 82.8518 178.111 82.8988 178.224L84.7481 177.463C84.5763 177.046 84.3032 176.671 83.9019 176.409C83.503 176.148 83.0523 176.047 82.6047 176.047V178.047ZM82.9186 178.27C83.0729 178.597 83.2302 179.408 83.2931 180.886L85.2913 180.801C85.2292 179.342 85.074 178.153 84.7283 177.418L82.9186 178.27ZM83.2932 180.89L84.1839 200.202L86.1818 200.11L85.2911 180.798L83.2932 180.89ZM84.225 199.869C84.1202 200.218 83.9955 200.379 83.9109 200.452C83.842 200.511 83.7423 200.562 83.5422 200.562V202.562C84.1546 202.562 84.7345 202.38 85.2125 201.97C85.6748 201.574 85.9641 201.032 86.1406 200.444L84.225 199.869ZM83.5422 200.562C83.2601 200.562 82.9309 200.458 82.5373 200.134L81.2659 201.678C81.9348 202.229 82.6993 202.562 83.5422 202.562V200.562ZM82.5855 200.177C82.2356 199.849 82.0307 199.474 81.9464 199.032L79.9817 199.406C80.1474 200.276 80.5676 201.026 81.2176 201.636L82.5855 200.177ZM81.9636 199.249C81.9948 198.218 82.0729 195.703 82.1979 191.703L80.1989 191.641C80.0739 195.64 79.9958 198.157 79.9645 199.188L81.9636 199.249ZM82.1977 191.711C82.3539 187.679 82.4787 184.828 82.5719 183.149L80.575 183.038C80.4807 184.735 80.3554 187.602 80.1992 191.633L82.1977 191.711ZM80.8216 182.434C75.4724 188.534 71.8201 193.271 69.9224 196.616L71.662 197.603C73.4518 194.448 76.9869 189.841 82.3253 183.753L80.8216 182.434ZM103.522 177.234L103.739 176.258C103.458 176.196 103.165 176.257 102.932 176.427C102.7 176.596 102.552 176.858 102.526 177.144L103.522 177.234ZM105.632 177.703L106.63 177.656C106.609 177.205 106.289 176.825 105.848 176.727L105.632 177.703ZM106.71 200.438L107.668 200.725C107.7 200.616 107.714 200.503 107.709 200.39L106.71 200.438ZM103.428 201.141L104.09 200.391C104.082 200.383 104.073 200.376 104.064 200.369L103.428 201.141ZM102.444 199.5H101.444C101.444 199.563 101.45 199.625 101.462 199.687L102.444 199.5ZM102.866 191.578L103.864 191.632C103.865 191.614 103.866 191.596 103.866 191.578H102.866ZM102.866 191.203H103.866C103.866 190.678 103.46 190.243 102.937 190.206L102.866 191.203ZM93.1159 190.875L93.2341 189.882C92.9354 189.846 92.6366 189.947 92.4204 190.156C92.2043 190.366 92.0938 190.661 92.1196 190.961L93.1159 190.875ZM93.7253 199.641L94.6857 199.919C94.7178 199.809 94.7305 199.694 94.7234 199.579L93.7253 199.641ZM90.4441 200.438L89.7601 201.167C89.7757 201.182 89.7918 201.196 89.8084 201.209L90.4441 200.438ZM89.5066 198.75L88.5084 198.69C88.5034 198.773 88.5087 198.856 88.5242 198.937L89.5066 198.75ZM89.8347 177.562L90.0721 176.591C89.7896 176.522 89.4909 176.579 89.2541 176.748C89.0172 176.917 88.8657 177.181 88.8389 177.471L89.8347 177.562ZM91.9441 178.078L92.9398 177.986C92.9007 177.561 92.5961 177.208 92.1815 177.107L91.9441 178.078ZM92.9284 188.531L91.942 188.696C92.0192 189.158 92.4075 189.505 92.8759 189.53L92.9284 188.531ZM103.305 178.211L105.415 178.679L105.848 176.727L103.739 176.258L103.305 178.211ZM104.633 177.75L105.711 200.485L107.709 200.39L106.63 177.656L104.633 177.75ZM105.752 200.15C105.647 200.499 105.522 200.66 105.438 200.733C105.369 200.792 105.269 200.844 105.069 200.844V202.844C105.681 202.844 106.261 202.661 106.739 202.251C107.202 201.855 107.491 201.313 107.668 200.725L105.752 200.15ZM105.069 200.844C104.809 200.844 104.488 200.742 104.09 200.391L102.767 201.89C103.432 202.477 104.205 202.844 105.069 202.844V200.844ZM104.064 200.369C103.707 200.075 103.506 199.732 103.426 199.313L101.462 199.687C101.632 200.58 102.087 201.331 102.793 201.913L104.064 200.369ZM103.444 199.5C103.444 199.511 103.45 199.371 103.469 199.004C103.487 198.663 103.513 198.162 103.548 197.502C103.618 196.183 103.724 194.226 103.864 191.632L101.867 191.524C101.588 196.678 101.444 199.37 101.444 199.5H103.444ZM103.866 191.578V191.203H101.866V191.578H103.866ZM102.937 190.206C102.026 190.141 100.7 190.109 98.9753 190.109V192.109C100.688 192.109 101.956 192.141 102.795 192.201L102.937 190.206ZM98.9753 190.109C96.3912 190.109 94.486 190.031 93.2341 189.882L92.9977 191.868C94.3709 192.031 96.372 192.109 98.9753 192.109V190.109ZM92.1196 190.961C92.2748 192.76 92.4773 195.672 92.7272 199.703L94.7234 199.579C94.4733 195.547 94.2696 192.615 94.1122 190.789L92.1196 190.961ZM92.765 199.362C92.6577 199.731 92.5289 199.904 92.4412 199.982C92.3716 200.044 92.2761 200.094 92.0847 200.094V202.094C92.7058 202.094 93.29 201.902 93.7673 201.479C94.2264 201.072 94.5117 200.519 94.6857 199.919L92.765 199.362ZM92.0847 200.094C91.8026 200.094 91.4734 199.99 91.0798 199.666L89.8084 201.209C90.4773 201.76 91.2418 202.094 92.0847 202.094V200.094ZM91.128 199.708C90.7781 199.38 90.5732 199.006 90.4889 198.563L88.5242 198.937C88.6899 199.807 89.1101 200.558 89.7601 201.167L91.128 199.708ZM90.5048 198.81C90.5997 197.227 90.6472 195.645 90.6472 194.062H88.6472C88.6472 195.605 88.6009 197.148 88.5084 198.69L90.5048 198.81ZM90.6472 194.062C90.6472 193.054 90.6315 191.548 90.6002 189.547L88.6004 189.578C88.6317 191.577 88.6472 193.071 88.6472 194.062H90.6472ZM90.6002 189.547C90.569 187.548 90.5534 186.07 90.5534 185.109H88.5534C88.5534 186.086 88.5692 187.577 88.6004 189.578L90.6002 189.547ZM90.5534 185.109C90.5534 182.127 90.6467 179.645 90.8305 177.654L88.8389 177.471C88.6476 179.543 88.5534 182.092 88.5534 185.109H90.5534ZM89.5972 178.534L91.7066 179.05L92.1815 177.107L90.0721 176.591L89.5972 178.534ZM90.9483 178.17C91.2608 181.561 91.4992 184.128 91.6633 185.871C91.8238 187.575 91.9186 188.555 91.942 188.696L93.9148 188.367C93.9173 188.382 93.9124 188.346 93.8974 188.203C93.8846 188.079 93.867 187.904 93.8446 187.675C93.7998 187.218 93.7365 186.554 93.6545 185.684C93.4905 183.942 93.2523 181.377 92.9398 177.986L90.9483 178.17ZM92.8759 189.53C98.1885 189.809 100.987 189.953 101.178 189.953V187.953C101.186 187.953 101.154 187.952 101.042 187.947C100.944 187.943 100.804 187.937 100.623 187.928C100.261 187.91 99.7371 187.884 99.0498 187.849C97.6756 187.779 95.6527 187.673 92.981 187.533L92.8759 189.53ZM101.178 189.953C101.828 189.953 102.358 189.934 102.741 189.887C102.922 189.865 103.134 189.83 103.324 189.76C103.415 189.727 103.57 189.662 103.72 189.534C103.88 189.397 104.1 189.124 104.1 188.719H102.1C102.1 188.353 102.3 188.116 102.421 188.013C102.53 187.92 102.625 187.886 102.637 187.882C102.666 187.871 102.638 187.885 102.499 187.902C102.241 187.933 101.81 187.953 101.178 187.953V189.953ZM104.1 188.719C104.1 188.117 104.162 186.157 104.287 182.803L102.289 182.728C102.164 186.062 102.1 188.07 102.1 188.719H104.1ZM104.287 182.803C104.413 179.436 104.49 177.634 104.518 177.325L102.526 177.144C102.492 177.522 102.413 179.407 102.289 182.728L104.287 182.803ZM111.362 186.844L110.378 186.663C110.377 186.67 110.376 186.676 110.375 186.683L111.362 186.844ZM125.893 180.188L125.061 180.742L125.064 180.747L125.893 180.188ZM128.143 193.406L127.167 193.189C127.165 193.195 127.164 193.2 127.163 193.206L128.143 193.406ZM124.065 200.859L124.668 201.657L124.671 201.654L124.065 200.859ZM119.987 202.359L119.857 203.351C119.927 203.36 119.997 203.362 120.066 203.356L119.987 202.359ZM113.33 198.703L112.529 199.301L112.533 199.307L113.33 198.703ZM118.955 178.547L119.076 177.554C118.998 177.545 118.919 177.544 118.842 177.553L118.955 178.547ZM114.737 187.031L115.729 187.155L115.729 187.153L114.737 187.031ZM116.002 196.547L115.186 197.125C115.191 197.131 115.195 197.138 115.2 197.144L116.002 196.547ZM124.112 194.859L123.188 194.475C123.187 194.479 123.185 194.484 123.183 194.488L124.112 194.859ZM125.143 191.484L124.167 191.267C124.165 191.276 124.163 191.285 124.161 191.294L125.143 191.484ZM111.987 191.016C111.987 189.831 112.105 188.495 112.348 187.005L110.375 186.683C110.118 188.255 109.987 189.701 109.987 191.016H111.987ZM112.345 187.024C112.618 185.539 113.014 183.969 113.534 182.316L111.626 181.715C111.084 183.437 110.668 185.086 110.378 186.663L112.345 187.024ZM113.534 182.316C114.027 180.752 114.753 179.484 115.698 178.483L114.244 177.11C113.064 178.36 112.197 179.904 111.626 181.715L113.534 182.316ZM115.698 178.483C116.593 177.536 117.572 177.109 118.674 177.109V175.109C116.963 175.109 115.474 175.807 114.244 177.11L115.698 178.483ZM118.674 177.109C121.306 177.109 123.414 178.272 125.061 180.742L126.725 179.633C124.746 176.665 122.042 175.109 118.674 175.109V177.109ZM125.064 180.747C126.762 183.265 127.612 186.07 127.612 189.188H129.612C129.612 185.68 128.648 182.485 126.722 179.628L125.064 180.747ZM127.612 189.188C127.612 190.519 127.464 191.853 127.167 193.189L129.119 193.623C129.447 192.147 129.612 190.668 129.612 189.188H127.612ZM127.163 193.206C126.898 194.5 126.471 195.786 125.877 197.063L127.69 197.906C128.346 196.496 128.825 195.062 129.123 193.607L127.163 193.206ZM125.877 197.063C125.321 198.258 124.518 199.256 123.458 200.064L124.671 201.654C125.987 200.651 126.996 199.398 127.69 197.906L125.877 197.063ZM123.461 200.062C122.469 200.813 121.295 201.251 119.907 201.363L120.066 203.356C121.803 203.217 123.348 202.656 124.668 201.657L123.461 200.062ZM120.116 201.368C117.471 201.023 115.508 199.922 114.127 198.099L112.533 199.307C114.278 201.61 116.752 202.946 119.857 203.351L120.116 201.368ZM114.132 198.105C112.718 196.211 111.987 193.867 111.987 191.016H109.987C109.987 194.227 110.818 197.008 112.529 199.301L114.132 198.105ZM118.842 177.553C117.155 177.746 116.033 179.245 115.261 181.175L117.118 181.918C117.846 180.099 118.569 179.598 119.069 179.54L118.842 177.553ZM115.261 181.175C114.483 183.121 113.974 185.033 113.744 186.909L115.729 187.153C115.936 185.467 116.396 183.723 117.118 181.918L115.261 181.175ZM113.744 186.907C113.522 188.686 113.408 190.276 113.408 191.672H115.408C115.408 190.38 115.514 188.876 115.729 187.155L113.744 186.907ZM113.408 191.672C113.408 193.64 114.01 195.465 115.186 197.125L116.818 195.969C115.869 194.629 115.408 193.204 115.408 191.672H113.408ZM115.2 197.144C116.409 198.767 117.893 199.75 119.658 199.75V197.75C118.737 197.75 117.783 197.264 116.804 195.95L115.2 197.144ZM119.658 199.75C120.917 199.75 122.032 199.252 122.976 198.346L121.591 196.904C120.972 197.498 120.338 197.75 119.658 197.75V199.75ZM122.976 198.346C123.869 197.489 124.554 196.445 125.04 195.231L123.183 194.488C122.794 195.461 122.261 196.261 121.591 196.904L122.976 198.346ZM125.035 195.244C125.528 194.06 125.892 192.871 126.124 191.675L124.161 191.294C123.956 192.348 123.633 193.408 123.188 194.475L125.035 195.244ZM126.119 191.701C126.38 190.526 126.518 189.451 126.518 188.484H124.518C124.518 189.268 124.405 190.193 124.167 191.267L126.119 191.701ZM126.518 188.484C126.518 185.767 125.903 183.347 124.638 181.263L122.928 182.3C123.976 184.028 124.518 186.077 124.518 188.484H126.518ZM124.638 181.263C123.336 179.116 121.468 177.844 119.076 177.554L118.835 179.54C120.568 179.75 121.918 180.634 122.928 182.3L124.638 181.263ZM131.388 179.484L130.409 179.685C130.5 180.133 130.885 180.462 131.342 180.483L131.388 179.484ZM130.967 177.422L130.907 176.424C130.618 176.441 130.35 176.583 130.173 176.813C129.997 177.043 129.929 177.338 129.987 177.622L130.967 177.422ZM150.748 176.391L150.789 175.391C150.759 175.39 150.729 175.39 150.699 175.392L150.748 176.391ZM151.592 180.516L151.543 181.514C151.593 181.517 151.642 181.516 151.691 181.511L151.592 180.516ZM142.826 180.094L142.874 179.095C142.589 179.081 142.312 179.19 142.112 179.393C141.913 179.597 141.809 179.876 141.828 180.16L142.826 180.094ZM143.06 190.359H142.06L142.06 190.366L143.06 190.359ZM143.248 200.156L144.203 200.453C144.237 200.342 144.252 200.226 144.247 200.111L143.248 200.156ZM140.06 200.859L139.402 201.612L140.06 200.859ZM139.123 199.266L138.124 199.209C138.12 199.294 138.126 199.379 138.142 199.462L139.123 199.266ZM140.482 179.906L141.478 179.996C141.503 179.724 141.415 179.454 141.236 179.249C141.056 179.043 140.801 178.92 140.529 178.907L140.482 179.906ZM132.368 179.284L131.946 177.221L129.987 177.622L130.409 179.685L132.368 179.284ZM131.026 178.42C135.208 178.17 141.797 177.827 150.796 177.389L150.699 175.392C141.699 175.829 135.1 176.173 130.907 176.424L131.026 178.42ZM150.706 177.39C151.205 177.411 151.609 177.587 151.963 177.941L153.377 176.527C152.668 175.819 151.79 175.433 150.789 175.391L150.706 177.39ZM151.963 177.941C152.359 178.338 152.467 178.659 152.467 178.922H154.467C154.467 177.997 154.043 177.194 153.377 176.527L151.963 177.941ZM152.467 178.922C152.467 179.144 152.406 179.214 152.35 179.261C152.255 179.343 152.015 179.468 151.492 179.521L151.691 181.511C152.418 181.438 153.116 181.236 153.645 180.785C154.215 180.301 154.467 179.637 154.467 178.922H152.467ZM151.64 179.517L142.874 179.095L142.778 181.093L151.543 181.514L151.64 179.517ZM141.828 180.16C141.982 182.47 142.06 185.865 142.06 190.359H144.06C144.06 185.853 143.982 182.405 143.824 180.027L141.828 180.16ZM142.06 190.366C142.092 194.837 142.154 198.119 142.249 200.202L144.247 200.111C144.154 198.069 144.092 194.819 144.06 190.352L142.06 190.366ZM142.293 199.86C142.191 200.189 142.07 200.338 141.989 200.406C141.92 200.463 141.816 200.516 141.607 200.516V202.516C142.211 202.516 142.786 202.342 143.265 201.946C143.73 201.56 144.024 201.03 144.203 200.453L142.293 199.86ZM141.607 200.516C141.374 200.516 141.084 200.426 140.719 200.107L139.402 201.612C140.037 202.168 140.777 202.516 141.607 202.516V200.516ZM140.719 200.107C140.377 199.808 140.183 199.469 140.103 199.07L138.142 199.462C138.312 200.312 138.744 201.036 139.402 201.612L140.719 200.107ZM140.121 199.322C140.558 191.641 141.011 185.2 141.478 179.996L139.486 179.817C139.016 185.05 138.562 191.515 138.124 199.209L140.121 199.322ZM140.529 178.907L131.435 178.485L131.342 180.483L140.436 180.905L140.529 178.907ZM174.759 196.453L175.734 196.232C175.631 195.776 175.226 195.453 174.759 195.453V196.453ZM175.228 198.516L175.57 199.455C176.043 199.283 176.315 198.785 176.203 198.294L175.228 198.516ZM169.087 200.203L169.303 201.18L169.311 201.178L169.087 200.203ZM159.572 199.781L158.9 200.522C158.904 200.526 158.909 200.53 158.913 200.534L159.572 199.781ZM157.322 196.359L156.379 196.694L156.382 196.701L157.322 196.359ZM156.197 192.234L155.209 192.391C155.21 192.4 155.212 192.409 155.213 192.417L156.197 192.234ZM170.915 178.125L170.266 178.886C170.27 178.889 170.273 178.892 170.277 178.895L170.915 178.125ZM172.04 184.781L171.236 184.187C171.23 184.195 171.225 184.202 171.219 184.21L172.04 184.781ZM170.165 186.516L170.657 187.386L170.669 187.379L170.165 186.516ZM167.353 187.641L167.068 186.682L167.061 186.684L167.353 187.641ZM158.681 189.328L158.485 188.348C158.005 188.444 157.665 188.873 157.682 189.363L158.681 189.328ZM158.822 191.719L157.826 191.809C157.827 191.824 157.829 191.839 157.831 191.854L158.822 191.719ZM159.29 193.969L158.325 194.229C158.329 194.244 158.333 194.259 158.338 194.274L159.29 193.969ZM160.228 195.938L159.411 196.514C159.424 196.533 159.437 196.551 159.452 196.568L160.228 195.938ZM168.431 197.438L168.546 198.431C168.552 198.43 168.558 198.429 168.564 198.429L168.431 197.438ZM172.743 196.781L172.575 195.796L172.571 195.796L172.743 196.781ZM158.868 186.422L157.877 186.292C157.833 186.626 157.961 186.96 158.216 187.18C158.471 187.4 158.82 187.476 159.144 187.383L158.868 186.422ZM169.322 182.578L169.765 183.475C170.174 183.272 170.395 182.818 170.3 182.371L169.322 182.578ZM161.54 181.594L160.897 180.828L160.89 180.834L161.54 181.594ZM173.784 196.675L174.253 198.737L176.203 198.294L175.734 196.232L173.784 196.675ZM174.886 197.576C173.57 198.054 171.571 198.606 168.863 199.229L169.311 201.178C172.041 200.55 174.136 199.977 175.57 199.455L174.886 197.576ZM168.871 199.227C166.195 199.818 164.284 200.094 163.087 200.094V202.094C164.515 202.094 166.604 201.776 169.303 201.18L168.871 199.227ZM163.087 200.094C161.983 200.094 161.046 199.742 160.23 199.029L158.913 200.534C160.098 201.57 161.504 202.094 163.087 202.094V200.094ZM160.243 199.04C159.374 198.252 158.711 197.253 158.261 196.018L156.382 196.701C156.933 198.216 157.769 199.498 158.9 200.522L160.243 199.04ZM158.264 196.024C157.78 194.663 157.419 193.339 157.18 192.051L155.213 192.417C155.474 193.817 155.863 195.243 156.379 196.694L158.264 196.024ZM157.184 192.077C156.973 190.751 156.868 189.46 156.868 188.203H154.868C154.868 189.571 154.982 190.968 155.209 192.391L157.184 192.077ZM156.868 188.203C156.868 184.427 157.724 181.782 159.259 180.085C160.776 178.406 163.113 177.484 166.462 177.484V175.484C162.749 175.484 159.789 176.516 157.775 178.743C155.779 180.952 154.868 184.166 154.868 188.203H156.868ZM166.462 177.484C167.912 177.484 169.166 177.947 170.266 178.886L171.565 177.364C170.102 176.116 168.387 175.484 166.462 175.484V177.484ZM170.277 178.895C171.321 179.76 171.837 180.865 171.837 182.297H173.837C173.837 180.292 173.072 178.615 171.554 177.355L170.277 178.895ZM171.837 182.297C171.837 183.032 171.634 183.649 171.236 184.187L172.844 185.376C173.509 184.476 173.837 183.437 173.837 182.297H171.837ZM171.219 184.21C170.802 184.81 170.285 185.288 169.661 185.652L170.669 187.379C171.546 186.868 172.279 186.19 172.861 185.352L171.219 184.21ZM169.673 185.645C169.042 186.002 168.182 186.351 167.068 186.682L167.638 188.599C168.836 188.243 169.851 187.842 170.657 187.386L169.673 185.645ZM167.061 186.684C165.962 187.02 165.002 187.259 164.177 187.406L164.529 189.375C165.453 189.21 166.493 188.949 167.645 188.597L167.061 186.684ZM164.177 187.406C163.312 187.561 162.274 187.731 161.06 187.918L161.364 189.895C162.588 189.706 163.643 189.533 164.529 189.375L164.177 187.406ZM161.06 187.918C159.843 188.105 158.978 188.249 158.485 188.348L158.877 190.309C159.321 190.22 160.144 190.082 161.364 189.895L161.06 187.918ZM157.682 189.363C157.713 190.282 157.761 191.098 157.826 191.809L159.817 191.628C159.757 190.964 159.711 190.187 159.68 189.294L157.682 189.363ZM157.831 191.854C157.931 192.591 158.097 193.383 158.325 194.229L160.256 193.709C160.046 192.929 159.899 192.221 159.812 191.584L157.831 191.854ZM158.338 194.274C158.611 195.128 158.964 195.881 159.411 196.514L161.045 195.361C160.742 194.931 160.469 194.372 160.243 193.664L158.338 194.274ZM159.452 196.568C159.963 197.198 160.631 197.702 161.421 198.098L162.316 196.309C161.731 196.016 161.305 195.677 161.004 195.307L159.452 196.568ZM161.421 198.098C162.275 198.524 163.247 198.719 164.306 198.719V196.719C163.49 196.719 162.837 196.569 162.316 196.309L161.421 198.098ZM164.306 198.719C165.482 198.719 166.898 198.621 168.546 198.431L168.316 196.444C166.714 196.629 165.38 196.719 164.306 196.719V198.719ZM168.564 198.429C170.199 198.209 171.65 197.988 172.916 197.766L172.571 195.796C171.337 196.012 169.913 196.229 168.298 196.446L168.564 198.429ZM172.912 197.767C173.552 197.658 174.037 197.576 174.369 197.522C174.535 197.495 174.66 197.475 174.745 197.463C174.788 197.456 174.817 197.452 174.833 197.45C174.877 197.445 174.827 197.453 174.759 197.453V195.453C174.675 195.453 174.59 195.465 174.581 195.466C174.544 195.471 174.499 195.477 174.451 195.485C174.352 195.499 174.217 195.521 174.048 195.548C173.708 195.603 173.216 195.686 172.575 195.796L172.912 197.767ZM159.144 187.383C163.428 186.155 166.974 184.854 169.765 183.475L168.878 181.682C166.232 182.99 162.809 184.252 158.593 185.461L159.144 187.383ZM170.3 182.371C170.07 181.286 169.732 180.354 169.212 179.703L167.65 180.953C167.88 181.24 168.136 181.808 168.343 182.786L170.3 182.371ZM169.212 179.703C168.601 178.939 167.714 178.625 166.743 178.625V180.625C167.273 180.625 167.511 180.779 167.65 180.953L169.212 179.703ZM166.743 178.625C164.585 178.625 162.626 179.376 160.897 180.828L162.184 182.359C163.58 181.187 165.09 180.625 166.743 180.625V178.625ZM160.89 180.834C159.181 182.299 158.161 184.128 157.877 186.292L159.86 186.552C160.076 184.903 160.837 183.514 162.191 182.353L160.89 180.834ZM194.364 199.828L195.362 199.76C195.342 199.465 195.192 199.194 194.952 199.019C194.713 198.845 194.409 198.786 194.122 198.858L194.364 199.828ZM194.505 201.891L194.747 202.861C195.217 202.743 195.535 202.306 195.502 201.823L194.505 201.891ZM185.505 194.766L184.6 195.193C184.604 195.199 184.607 195.206 184.61 195.213L185.505 194.766ZM181.145 190.875L180.751 189.956C180.361 190.123 180.119 190.518 180.148 190.942L181.145 190.875ZM181.802 199.969L182.762 200.248C182.795 200.133 182.808 200.013 182.799 199.894L181.802 199.969ZM178.52 200.766L177.836 201.495C177.852 201.51 177.868 201.524 177.885 201.538L178.52 200.766ZM177.583 199.078L176.583 199.054C176.581 199.125 176.587 199.196 176.6 199.265L177.583 199.078ZM178.192 176.156L178.527 175.214C178.244 175.113 177.931 175.145 177.674 175.301C177.417 175.457 177.244 175.72 177.202 176.017L178.192 176.156ZM180.302 176.906L181.281 176.705C181.211 176.362 180.966 176.081 180.637 175.964L180.302 176.906ZM180.723 182.156L179.724 182.17L179.724 182.17L180.723 182.156ZM180.817 186.328L179.819 186.387C179.836 186.67 179.972 186.933 180.194 187.11C180.415 187.287 180.702 187.361 180.982 187.315L180.817 186.328ZM183.255 184.875L182.506 184.212C182.501 184.218 182.496 184.223 182.491 184.229L183.255 184.875ZM184.989 182.109L184.079 181.696C184.075 181.703 184.072 181.711 184.068 181.719L184.989 182.109ZM188.364 176.531L187.718 175.768C187.713 175.772 187.708 175.776 187.703 175.781L188.364 176.531ZM193.848 176.062L194.842 176.179C194.898 175.703 194.607 175.253 194.15 175.109L193.848 176.062ZM193.661 177.656L193.497 178.643C193.766 178.688 194.043 178.62 194.262 178.456C194.48 178.291 194.622 178.045 194.654 177.773L193.661 177.656ZM189.63 179.203L188.88 178.542L188.879 178.543L189.63 179.203ZM187.567 182.672L186.628 182.328L186.623 182.342L187.567 182.672ZM183.63 188.297L183.405 187.322C182.953 187.427 182.632 187.828 182.63 188.291C182.627 188.754 182.943 189.159 183.393 189.269L183.63 188.297ZM186.583 190.641L185.738 191.176C185.741 191.181 185.744 191.186 185.748 191.191L186.583 190.641ZM188.458 194.625L187.499 194.908C187.501 194.917 187.504 194.926 187.507 194.935L188.458 194.625ZM190.333 198.328L189.522 198.914L189.53 198.924L190.333 198.328ZM193.366 199.896L193.507 201.959L195.502 201.823L195.362 199.76L193.366 199.896ZM194.262 200.92C193.509 201.109 193.086 201.172 192.911 201.172V203.172C193.36 203.172 194 203.048 194.747 202.861L194.262 200.92ZM192.911 201.172C191.963 201.172 191.104 200.867 190.304 200.222L189.049 201.778C190.186 202.696 191.483 203.172 192.911 203.172V201.172ZM190.304 200.222C189.439 199.524 188.725 198.671 188.16 197.655L186.412 198.626C187.097 199.86 187.976 200.914 189.049 201.778L190.304 200.222ZM188.16 197.655C187.542 196.542 186.955 195.43 186.399 194.318L184.61 195.213C185.179 196.351 185.78 197.489 186.412 198.626L188.16 197.655ZM186.409 194.339C185.852 193.159 185.235 192.136 184.551 191.282L182.989 192.531C183.556 193.239 184.095 194.122 184.6 195.193L186.409 194.339ZM184.551 191.282C183.838 190.39 182.94 189.734 181.848 189.734V191.734C182.069 191.734 182.453 191.86 182.989 192.531L184.551 191.282ZM181.848 189.734C181.47 189.734 181.101 189.806 180.751 189.956L181.539 191.794C181.627 191.756 181.727 191.734 181.848 191.734V189.734ZM180.148 190.942C180.273 192.821 180.492 195.855 180.804 200.043L182.799 199.894C182.486 195.707 182.268 192.679 182.143 190.808L180.148 190.942ZM180.841 199.69C180.734 200.059 180.605 200.232 180.517 200.31C180.448 200.372 180.352 200.422 180.161 200.422V202.422C180.782 202.422 181.366 202.23 181.844 201.807C182.303 201.4 182.588 200.847 182.762 200.248L180.841 199.69ZM180.161 200.422C179.879 200.422 179.55 200.318 179.156 199.994L177.885 201.538C178.554 202.088 179.318 202.422 180.161 202.422V200.422ZM179.204 200.036C178.854 199.708 178.649 199.334 178.565 198.891L176.6 199.265C176.766 200.135 177.186 200.886 177.836 201.495L179.204 200.036ZM178.583 199.102C178.708 193.845 178.77 188.9 178.77 184.266H176.77C176.77 188.882 176.708 193.811 176.583 199.054L178.583 199.102ZM178.77 184.266C178.77 180.879 178.911 178.229 179.182 176.296L177.202 176.017C176.911 178.084 176.77 180.84 176.77 184.266H178.77ZM177.857 177.098L179.967 177.848L180.637 175.964L178.527 175.214L177.857 177.098ZM179.322 177.107C179.553 178.233 179.693 179.909 179.724 182.17L181.723 182.143C181.692 179.841 181.55 178.017 181.281 176.705L179.322 177.107ZM179.724 182.17C179.755 184.411 179.786 185.828 179.819 186.387L181.815 186.269C181.786 185.766 181.755 184.402 181.723 182.142L179.724 182.17ZM180.982 187.315C182.181 187.115 183.197 186.491 184.018 185.521L182.491 184.229C181.937 184.884 181.328 185.229 180.653 185.342L180.982 187.315ZM184.004 185.538C184.796 184.642 185.431 183.627 185.91 182.5L184.068 181.719C183.672 182.654 183.151 183.483 182.506 184.212L184.004 185.538ZM185.899 182.523C186.363 181.503 186.842 180.499 187.337 179.51L185.548 178.615C185.042 179.626 184.552 180.653 184.079 181.696L185.899 182.523ZM187.337 179.51C187.783 178.616 188.347 177.878 189.025 177.282L187.703 175.781C186.818 176.559 186.101 177.509 185.548 178.615L187.337 179.51ZM189.01 177.295C189.637 176.764 190.359 176.5 191.223 176.5V174.5C189.9 174.5 188.717 174.923 187.718 175.768L189.01 177.295ZM191.223 176.5C191.62 176.5 192.368 176.644 193.547 177.016L194.15 175.109C192.954 174.731 191.952 174.5 191.223 174.5V176.5ZM192.855 175.946L192.668 177.539L194.654 177.773L194.842 176.179L192.855 175.946ZM193.825 176.67C193.56 176.626 193.248 176.609 192.911 176.609V178.609C193.199 178.609 193.387 178.624 193.497 178.643L193.825 176.67ZM192.911 176.609C191.334 176.609 189.979 177.296 188.88 178.542L190.38 179.865C191.155 178.985 191.988 178.609 192.911 178.609V176.609ZM188.879 178.543C187.891 179.667 187.14 180.93 186.628 182.328L188.506 183.015C188.932 181.851 189.556 180.802 190.381 179.863L188.879 178.543ZM186.623 182.342C186.208 183.528 185.674 184.67 185.02 185.77L186.739 186.792C187.46 185.58 188.051 184.316 188.511 183.002L186.623 182.342ZM185.02 185.77C184.39 186.831 183.827 187.225 183.405 187.322L183.855 189.271C185.057 188.994 185.995 188.044 186.739 186.792L185.02 185.77ZM183.393 189.269C184.234 189.473 185.025 190.051 185.738 191.176L187.427 190.105C186.516 188.668 185.338 187.683 183.866 187.325L183.393 189.269ZM185.748 191.191C186.541 192.395 187.122 193.634 187.499 194.908L189.417 194.342C188.981 192.866 188.312 191.448 187.418 190.091L185.748 191.191ZM187.507 194.935C187.976 196.375 188.648 197.703 189.522 198.914L191.144 197.743C190.393 196.703 189.815 195.562 189.409 194.315L187.507 194.935ZM189.53 198.924C190.499 200.229 191.779 200.969 193.333 200.969V198.969C192.511 198.969 191.791 198.614 191.136 197.732L189.53 198.924ZM193.333 200.969C193.744 200.969 194.17 200.907 194.607 200.798L194.122 198.858C193.808 198.936 193.547 198.969 193.333 198.969V200.969ZM198.594 180.75L197.663 181.115C197.777 181.405 198.02 181.626 198.32 181.712C198.619 181.797 198.942 181.738 199.192 181.552L198.594 180.75ZM197.657 178.359L196.949 177.652C196.668 177.933 196.58 178.354 196.726 178.724L197.657 178.359ZM200.75 176.438L201.101 177.374C201.108 177.371 201.115 177.369 201.122 177.366L200.75 176.438ZM212.141 194.906L211.143 194.842L211.142 194.855L212.141 194.906ZM211.953 200.391L212.922 200.641C212.943 200.559 212.953 200.475 212.953 200.391H211.953ZM208.297 198.656L209.246 198.972C209.392 198.535 209.22 198.055 208.83 197.81C208.44 197.565 207.933 197.617 207.602 197.938L208.297 198.656ZM197.75 199.688L197.043 200.395C197.049 200.401 197.055 200.407 197.062 200.412L197.75 199.688ZM199.297 187.406L198.581 186.709L198.576 186.714L199.297 187.406ZM207.407 183.938L207.164 184.908C207.243 184.927 207.325 184.938 207.407 184.938V183.938ZM207.828 183.984L207.632 184.965C207.643 184.967 207.653 184.969 207.664 184.971L207.828 183.984ZM208.25 184.031V185.031C208.527 185.031 208.792 184.916 208.981 184.714C209.17 184.511 209.267 184.239 209.248 183.963L208.25 184.031ZM208.391 195.422L208.961 196.243C209.222 196.062 209.381 195.768 209.391 195.45L208.391 195.422ZM208.391 186.516L209.39 186.479C209.37 185.941 208.929 185.516 208.391 185.516V186.516ZM208.016 186.516V185.516L208.002 185.516L208.016 186.516ZM201.922 189L201.261 188.25L201.255 188.255L201.922 189ZM200.094 197.297L199.387 198.004C199.393 198.01 199.399 198.016 199.405 198.022L200.094 197.297ZM199.525 180.385L198.588 177.994L196.726 178.724L197.663 181.115L199.525 180.385ZM198.364 179.066C199.06 178.37 199.964 177.801 201.101 177.374L200.399 175.501C199.037 176.012 197.878 176.724 196.949 177.652L198.364 179.066ZM201.122 177.366C202.266 176.908 203.375 176.688 204.453 176.688V174.688C203.095 174.688 201.735 174.967 200.379 175.509L201.122 177.366ZM204.453 176.688C206.738 176.688 208.388 177.639 209.529 179.61C210.719 181.665 211.375 184.876 211.375 189.375H213.375C213.375 184.749 212.712 181.116 211.26 178.608C209.761 176.018 207.45 174.688 204.453 174.688V176.688ZM211.375 189.375C211.375 190.592 211.299 192.41 211.143 194.842L213.139 194.97C213.295 192.527 213.375 190.658 213.375 189.375H211.375ZM211.142 194.855C211.017 197.296 210.953 199.145 210.953 200.391H212.953C212.953 199.198 213.015 197.391 213.14 194.957L211.142 194.855ZM210.985 200.141C210.886 200.527 210.766 200.703 210.696 200.773C210.651 200.818 210.609 200.844 210.5 200.844V202.844C211.11 202.844 211.67 202.627 212.11 202.188C212.523 201.774 212.771 201.223 212.922 200.641L210.985 200.141ZM210.5 200.844C210.319 200.844 210.062 200.768 209.722 200.36L208.185 201.64C208.782 202.357 209.557 202.844 210.5 202.844V200.844ZM209.722 200.36C209.392 199.964 209.25 199.563 209.25 199.125H207.25C207.25 200.062 207.577 200.911 208.185 201.64L209.722 200.36ZM209.25 199.125C209.25 199.037 209.254 198.978 209.257 198.943C209.259 198.926 209.26 198.92 209.26 198.923C209.259 198.924 209.256 198.943 209.246 198.972L207.348 198.34C207.262 198.599 207.25 198.897 207.25 199.125H209.25ZM207.602 197.938C205.805 199.676 203.98 200.469 202.11 200.469V202.469C204.614 202.469 206.914 201.386 208.993 199.375L207.602 197.938ZM202.11 200.469C200.721 200.469 199.512 199.981 198.439 198.963L197.062 200.412C198.489 201.769 200.186 202.469 202.11 202.469V200.469ZM198.457 198.98C197.426 197.949 196.922 196.734 196.922 195.281H194.922C194.922 197.266 195.638 198.989 197.043 200.395L198.457 198.98ZM196.922 195.281C196.922 192.664 197.924 190.28 200.019 188.099L198.576 186.714C196.17 189.22 194.922 192.086 194.922 195.281H196.922ZM200.014 188.104C202.135 185.924 204.465 184.891 207.032 184.891V182.891C203.849 182.891 201.022 184.201 198.581 186.709L200.014 188.104ZM207.032 184.891C207.072 184.891 207.116 184.896 207.164 184.908L207.649 182.967C207.447 182.917 207.241 182.891 207.032 182.891V184.891ZM207.407 184.938C207.451 184.938 207.524 184.943 207.632 184.965L208.025 183.004C207.82 182.963 207.612 182.938 207.407 182.938V184.938ZM207.664 184.971C207.863 185.004 208.07 185.031 208.25 185.031V183.031C208.254 183.031 208.235 183.031 208.185 183.026C208.138 183.02 208.074 183.012 207.993 182.998L207.664 184.971ZM209.248 183.963C209.116 182.039 208.662 180.435 207.756 179.296C206.812 178.108 205.477 177.547 203.891 177.547V179.547C204.962 179.547 205.681 179.9 206.19 180.54C206.737 181.229 207.134 182.367 207.253 184.099L209.248 183.963ZM203.891 177.547C202.021 177.547 200.045 178.42 197.996 179.948L199.192 181.552C201.08 180.143 202.636 179.547 203.891 179.547V177.547ZM209.391 195.45C209.453 193.261 209.485 191.593 209.485 190.453H207.485C207.485 191.563 207.454 193.208 207.391 195.393L209.391 195.45ZM209.485 190.453C209.485 189.497 209.453 188.17 209.39 186.479L207.392 186.553C207.454 188.236 207.485 189.534 207.485 190.453H209.485ZM208.391 185.516H208.016V187.516H208.391V185.516ZM208.002 185.516C205.518 185.551 203.263 186.485 201.261 188.25L202.583 189.75C204.269 188.265 206.076 187.543 208.03 187.516L208.002 185.516ZM201.255 188.255C199.243 190.059 198.203 192.293 198.203 194.906H200.203C200.203 192.894 200.976 191.191 202.59 189.745L201.255 188.255ZM198.203 194.906C198.203 196.117 198.57 197.187 199.387 198.004L200.801 196.59C200.43 196.219 200.203 195.695 200.203 194.906H198.203ZM199.405 198.022C200.219 198.795 201.217 199.188 202.344 199.188V197.188C201.721 197.188 201.219 196.986 200.783 196.572L199.405 198.022ZM202.344 199.188C203.237 199.188 204.235 198.894 205.303 198.405C206.383 197.911 207.604 197.185 208.961 196.243L207.821 194.6C206.521 195.502 205.407 196.159 204.471 196.587C203.523 197.02 202.827 197.188 202.344 197.188V199.188Z" fill="#FFFDFD" fill-opacity="0.8" style="mix-blend-mode:hard-light"/>
</svg>
